<svg width="222" height="56" viewBox="0 0 222 56" fill="none" xmlns="http://www.w3.org/2000/svg">
<path d="M74.4681 39.7957C74.4681 40.3029 74.4039 40.7642 74.2756 41.1797C74.1534 41.5891 73.964 41.9435 73.7074 42.2429C73.4568 42.5423 73.1391 42.7714 72.7542 42.9303C72.3753 43.0891 71.9324 43.1686 71.4252 43.1686C70.9058 43.1686 70.4537 43.0891 70.0687 42.9303C69.6899 42.7653 69.3722 42.5362 69.1156 42.2429C68.865 41.9435 68.6787 41.586 68.5565 41.1705C68.4343 40.755 68.3732 40.2937 68.3732 39.7866C68.3732 39.1145 68.4831 38.5279 68.7031 38.0268C68.9231 37.5258 69.2591 37.1348 69.7113 36.8537C70.1696 36.5726 70.7439 36.4321 71.4344 36.4321C72.1065 36.4321 72.6656 36.5726 73.1116 36.8537C73.5638 37.1286 73.9029 37.5197 74.129 38.0268C74.355 38.5279 74.4681 39.1175 74.4681 39.7957ZM69.418 39.7957C69.418 40.3212 69.4883 40.7734 69.6288 41.1522C69.7693 41.5249 69.9893 41.8152 70.2887 42.0229C70.5881 42.2245 70.9669 42.3254 71.4252 42.3254C71.8896 42.3254 72.2684 42.2245 72.5617 42.0229C72.855 41.8152 73.0719 41.5249 73.2124 41.1522C73.353 40.7734 73.4232 40.3212 73.4232 39.7957C73.4232 39.0075 73.2644 38.3935 72.9466 37.9535C72.635 37.5075 72.1309 37.2845 71.4344 37.2845C70.97 37.2845 70.5881 37.3853 70.2887 37.5869C69.9893 37.7885 69.7693 38.0757 69.6288 38.4484C69.4883 38.8212 69.418 39.2703 69.418 39.7957Z" fill="#0B1C24"/>
<path d="M75.5052 40.1165C75.5052 39.3894 75.5816 38.7723 75.7343 38.2651C75.8932 37.758 76.1376 37.3547 76.4676 37.0553C76.7975 36.7498 77.2252 36.5421 77.7507 36.4321C78.1295 36.3588 78.4992 36.2915 78.8597 36.2304C79.2263 36.1693 79.5807 36.1143 79.9229 36.0655L80.0604 36.9178C79.9076 36.9362 79.7335 36.9606 79.5379 36.9912C79.3485 37.0217 79.153 37.0523 78.9514 37.0828C78.7558 37.1134 78.5664 37.1439 78.3831 37.1745C78.2059 37.205 78.047 37.2356 77.9065 37.2661C77.6926 37.3028 77.5032 37.3669 77.3383 37.4586C77.1794 37.5502 77.0419 37.6725 76.9258 37.8252C76.8158 37.978 76.7272 38.1735 76.66 38.4118C76.5928 38.644 76.5531 38.9281 76.5409 39.2642H76.5959C76.6814 39.1481 76.7944 39.0289 76.935 38.9067C77.0816 38.7845 77.2558 38.6837 77.4574 38.6043C77.6652 38.5187 77.9035 38.4759 78.1723 38.4759C78.5878 38.4759 78.9391 38.5676 79.2263 38.7509C79.5135 38.9281 79.7304 39.1817 79.8771 39.5116C80.0237 39.8355 80.097 40.2235 80.097 40.6756C80.097 41.2316 79.9993 41.696 79.8037 42.0687C79.6143 42.4354 79.3455 42.7103 78.9972 42.8936C78.655 43.0769 78.2548 43.1686 77.7965 43.1686C77.4482 43.1686 77.1336 43.1044 76.8525 42.9761C76.5714 42.8417 76.3301 42.6462 76.1284 42.3895C75.9268 42.1268 75.771 41.806 75.661 41.4272C75.5571 41.0483 75.5052 40.6115 75.5052 40.1165ZM77.8699 42.3712C78.1143 42.3712 78.3281 42.3193 78.5114 42.2154C78.6947 42.1115 78.8353 41.9435 78.933 41.7113C79.0369 41.4791 79.0888 41.1675 79.0888 40.7764C79.0888 40.306 79.0033 39.9332 78.8322 39.6583C78.6611 39.3833 78.377 39.2458 77.9798 39.2458C77.7354 39.2458 77.5093 39.3039 77.3016 39.42C77.1 39.5299 76.9289 39.6552 76.7883 39.7957C76.6539 39.9363 76.5592 40.0554 76.5042 40.1532C76.5042 40.4404 76.5225 40.7153 76.5592 40.9781C76.602 41.2408 76.6722 41.4761 76.77 41.6838C76.8739 41.8915 77.0144 42.0596 77.1916 42.1879C77.3688 42.3101 77.5949 42.3712 77.8699 42.3712Z" fill="#0B1C24"/>
<path d="M85.6919 40.6023C85.6919 41.0117 85.6369 41.3752 85.527 41.693C85.417 42.0107 85.2612 42.2795 85.0595 42.4995C84.8579 42.7195 84.6135 42.8875 84.3263 43.0036C84.0391 43.1136 83.7153 43.1686 83.3548 43.1686C83.0248 43.1686 82.7193 43.1136 82.4382 43.0036C82.1572 42.8875 81.9128 42.7195 81.705 42.4995C81.5034 42.2795 81.3445 42.0107 81.2284 41.693C81.1123 41.3752 81.0543 41.0086 81.0543 40.5931C81.0543 40.0493 81.1459 39.588 81.3292 39.2092C81.5187 38.8303 81.7875 38.5432 82.1358 38.3476C82.4902 38.146 82.9057 38.0452 83.3823 38.0452C83.8344 38.0452 84.2316 38.146 84.5738 38.3476C84.9221 38.5432 85.194 38.8303 85.3895 39.2092C85.5911 39.588 85.6919 40.0524 85.6919 40.6023ZM82.0533 40.6023C82.0533 40.9689 82.0991 41.2866 82.1908 41.5555C82.2824 41.8182 82.426 42.0199 82.6216 42.1604C82.8171 42.3009 83.0676 42.3712 83.3731 42.3712C83.6786 42.3712 83.9291 42.3009 84.1247 42.1604C84.3202 42.0199 84.4638 41.8182 84.5554 41.5555C84.6471 41.2866 84.6929 40.9689 84.6929 40.6023C84.6929 40.2235 84.644 39.9057 84.5463 39.6491C84.4546 39.3925 84.311 39.1969 84.1155 39.0625C83.9261 38.922 83.6756 38.8517 83.3639 38.8517C82.9057 38.8517 82.5727 39.0045 82.3649 39.31C82.1572 39.6155 82.0533 40.0463 82.0533 40.6023Z" fill="#0B1C24"/>
<path d="M89.389 38.0452C89.9817 38.0452 90.4583 38.259 90.8188 38.6867C91.1854 39.1145 91.3687 39.753 91.3687 40.6023C91.3687 41.1583 91.2862 41.6288 91.1212 42.0137C90.9563 42.3987 90.7241 42.6889 90.4247 42.8845C90.1253 43.0739 89.777 43.1686 89.3798 43.1686C89.1293 43.1686 88.9093 43.138 88.7199 43.0769C88.5305 43.0097 88.3686 42.9242 88.2342 42.8203C88.1058 42.7103 87.9928 42.5942 87.895 42.472H87.8309C87.8492 42.582 87.8645 42.7134 87.8767 42.8661C87.8889 43.0128 87.895 43.1441 87.895 43.2602V45.2766H86.9235V38.1368H87.7117L87.8492 38.7967H87.895C87.9928 38.6623 88.1089 38.537 88.2433 38.4209C88.3777 38.3049 88.5397 38.2132 88.7291 38.146C88.9185 38.0788 89.1385 38.0452 89.389 38.0452ZM89.1599 38.8426C88.8543 38.8426 88.6099 38.9037 88.4266 39.0259C88.2433 39.142 88.1089 39.3191 88.0234 39.5574C87.9439 39.7896 87.9012 40.086 87.895 40.4465V40.5931C87.895 40.972 87.9348 41.2958 88.0142 41.5646C88.0936 41.8274 88.225 42.029 88.4083 42.1696C88.5977 42.304 88.8543 42.3712 89.1782 42.3712C89.4531 42.3712 89.6762 42.2979 89.8473 42.1512C90.0244 41.9985 90.1558 41.7877 90.2414 41.5188C90.3269 41.25 90.3697 40.9384 90.3697 40.584C90.3697 40.0463 90.2719 39.6216 90.0764 39.31C89.8809 38.9984 89.5753 38.8426 89.1599 38.8426Z" fill="#0B1C24"/>
<path d="M91.766 38.1368H92.8109L93.8374 40.9414C93.8924 41.0819 93.9413 41.2194 93.984 41.3538C94.0268 41.4883 94.0635 41.6227 94.094 41.7571C94.1307 41.8854 94.1582 42.0137 94.1765 42.1421H94.2132C94.2437 41.9832 94.2926 41.7968 94.3598 41.583C94.427 41.363 94.4973 41.1461 94.5706 40.9322L95.5421 38.1368H96.587L94.4698 43.746C94.3537 44.0637 94.2101 44.3356 94.039 44.5617C93.8679 44.7939 93.6632 44.9711 93.4249 45.0933C93.1928 45.2155 92.9178 45.2766 92.6001 45.2766C92.4473 45.2766 92.3159 45.2674 92.206 45.2491C92.096 45.2369 92.0013 45.2216 91.9218 45.2033V44.4334C91.989 44.4456 92.0685 44.4578 92.1601 44.4701C92.2579 44.4823 92.3587 44.4884 92.4626 44.4884C92.652 44.4884 92.8139 44.4517 92.9483 44.3784C93.0889 44.3051 93.205 44.2012 93.2966 44.0668C93.3944 43.9324 93.4769 43.7796 93.5441 43.6085L93.7457 43.0769L91.766 38.1368Z" fill="#0B1C24"/>
<path d="M101.067 38.1368V42.307H101.791V44.8092H100.884V43.0769H97.4743V44.8092H96.5761V42.307H96.9702C97.2329 41.9282 97.4529 41.5127 97.6301 41.0606C97.8073 40.6084 97.9417 40.1349 98.0334 39.6399C98.1311 39.1389 98.1892 38.6379 98.2075 38.1368H101.067ZM99.0507 38.8884C99.0141 39.2855 98.9468 39.6919 98.8491 40.1074C98.7574 40.5229 98.6383 40.92 98.4916 41.2989C98.3511 41.6777 98.1831 42.0137 97.9875 42.307H100.114V38.8884H99.0507Z" fill="#0B1C24"/>
<path d="M107.075 40.6023C107.075 41.0117 107.02 41.3752 106.91 41.693C106.8 42.0107 106.644 42.2795 106.442 42.4995C106.241 42.7195 105.996 42.8875 105.709 43.0036C105.422 43.1136 105.098 43.1686 104.738 43.1686C104.408 43.1686 104.102 43.1136 103.821 43.0036C103.54 42.8875 103.296 42.7195 103.088 42.4995C102.886 42.2795 102.727 42.0107 102.611 41.693C102.495 41.3752 102.437 41.0086 102.437 40.5931C102.437 40.0493 102.529 39.588 102.712 39.2092C102.901 38.8303 103.17 38.5432 103.519 38.3476C103.873 38.146 104.288 38.0452 104.765 38.0452C105.217 38.0452 105.614 38.146 105.956 38.3476C106.305 38.5432 106.577 38.8303 106.772 39.2092C106.974 39.588 107.075 40.0524 107.075 40.6023ZM103.436 40.6023C103.436 40.9689 103.482 41.2866 103.574 41.5555C103.665 41.8182 103.809 42.0199 104.004 42.1604C104.2 42.3009 104.45 42.3712 104.756 42.3712C105.061 42.3712 105.312 42.3009 105.507 42.1604C105.703 42.0199 105.847 41.8182 105.938 41.5555C106.03 41.2866 106.076 40.9689 106.076 40.6023C106.076 40.2235 106.027 39.9057 105.929 39.6491C105.837 39.3925 105.694 39.1969 105.498 39.0625C105.309 38.922 105.058 38.8517 104.747 38.8517C104.288 38.8517 103.955 39.0045 103.748 39.31C103.54 39.6155 103.436 40.0463 103.436 40.6023Z" fill="#0B1C24"/>
<path d="M112.403 39.3925C112.403 39.6919 112.311 39.9302 112.128 40.1074C111.951 40.2785 111.713 40.3945 111.413 40.4556V40.4923C111.731 40.5351 112 40.6481 112.22 40.8314C112.446 41.0086 112.559 41.2714 112.559 41.6196C112.559 41.8335 112.519 42.029 112.44 42.2062C112.36 42.3834 112.238 42.5392 112.073 42.6737C111.908 42.802 111.694 42.9028 111.432 42.9761C111.175 43.0433 110.863 43.0769 110.497 43.0769H108.306V38.1368H110.497C110.857 38.1368 111.181 38.1765 111.468 38.256C111.755 38.3354 111.982 38.4668 112.146 38.6501C112.318 38.8334 112.403 39.0809 112.403 39.3925ZM111.551 41.6013C111.551 41.3447 111.453 41.1614 111.257 41.0514C111.062 40.9353 110.772 40.8773 110.387 40.8773H109.278V42.3437H110.405C110.766 42.3437 111.047 42.2887 111.248 42.1787C111.45 42.0626 111.551 41.8702 111.551 41.6013ZM111.413 39.5025C111.413 39.2886 111.337 39.1328 111.184 39.035C111.031 38.9373 110.784 38.8884 110.442 38.8884H109.278V40.1349H110.295C110.662 40.1349 110.94 40.086 111.129 39.9882C111.319 39.8843 111.413 39.7224 111.413 39.5025Z" fill="#0B1C24"/>
<path d="M115.646 38.0452C116.269 38.0452 116.733 38.1827 117.039 38.4576C117.344 38.7265 117.497 39.1511 117.497 39.7316V43.0769H116.81L116.617 42.3895H116.581C116.44 42.5667 116.293 42.7134 116.141 42.8295C115.994 42.9456 115.823 43.0311 115.627 43.0861C115.438 43.1411 115.206 43.1686 114.931 43.1686C114.638 43.1686 114.372 43.1166 114.134 43.0128C113.901 42.9028 113.718 42.7378 113.584 42.5178C113.449 42.2918 113.382 42.0107 113.382 41.6746C113.382 41.1736 113.571 40.7917 113.95 40.529C114.335 40.2662 114.919 40.1226 115.701 40.0982L116.544 40.0707V39.7957C116.544 39.4291 116.462 39.1725 116.297 39.0259C116.132 38.8792 115.899 38.8059 115.6 38.8059C115.343 38.8059 115.099 38.8426 114.867 38.9159C114.635 38.9892 114.415 39.0778 114.207 39.1817L113.895 38.4759C114.127 38.3537 114.393 38.2529 114.693 38.1735C114.998 38.0879 115.316 38.0452 115.646 38.0452ZM115.875 40.7214C115.313 40.7459 114.922 40.8406 114.702 41.0056C114.488 41.1644 114.381 41.3905 114.381 41.6838C114.381 41.9404 114.457 42.1268 114.61 42.2429C114.769 42.359 114.968 42.417 115.206 42.417C115.591 42.417 115.909 42.3101 116.159 42.0962C116.41 41.8824 116.535 41.5616 116.535 41.1339V40.7031L115.875 40.7214Z" fill="#0B1C24"/>
<path d="M119.965 38.1368V40.144H122.403V38.1368H123.374V43.0769H122.403V40.9231H119.965V43.0769H118.993V38.1368H119.965Z" fill="#0B1C24"/>
<path d="M125.817 40.8314C125.817 40.9047 125.814 40.9995 125.808 41.1156C125.802 41.2316 125.796 41.3538 125.79 41.4822C125.784 41.6044 125.774 41.7205 125.762 41.8304C125.756 41.9343 125.75 42.0168 125.744 42.0779L128.283 38.1368H129.465V43.0769H128.548V40.4465C128.548 40.3304 128.552 40.1868 128.558 40.0157C128.564 39.8446 128.57 39.6796 128.576 39.5208C128.588 39.3558 128.597 39.2306 128.603 39.145L126.083 43.0769H124.892V38.1368H125.817V40.8314Z" fill="#0B1C24"/>
<path d="M131.436 43.0769H130.336L131.729 41.0422C131.54 40.9811 131.359 40.8956 131.188 40.7856C131.023 40.6756 130.889 40.5229 130.785 40.3273C130.681 40.1318 130.629 39.8935 130.629 39.6124C130.629 39.1358 130.797 38.7723 131.133 38.5218C131.469 38.2651 131.909 38.1368 132.453 38.1368H134.689V43.0769H133.718V41.1522H132.655L131.436 43.0769ZM131.573 39.6216C131.573 39.8843 131.671 40.0829 131.866 40.2174C132.062 40.3457 132.334 40.4098 132.682 40.4098H133.718V38.8884H132.517C132.181 38.8884 131.94 38.9586 131.793 39.0992C131.646 39.2397 131.573 39.4139 131.573 39.6216Z" fill="#0B1C24"/>
<path d="M142.49 38.1368V42.307H143.214V44.8092H142.307V43.0769H138.897V44.8092H137.999V42.307H138.393C138.656 41.9282 138.876 41.5127 139.053 41.0606C139.23 40.6084 139.365 40.1349 139.456 39.6399C139.554 39.1389 139.612 38.6379 139.63 38.1368H142.49ZM140.474 38.8884C140.437 39.2855 140.37 39.6919 140.272 40.1074C140.18 40.5229 140.061 40.92 139.915 41.2989C139.774 41.6777 139.606 42.0137 139.41 42.307H141.537V38.8884H140.474Z" fill="#0B1C24"/>
<path d="M148.103 43.0769H147.123V38.9159H145.73C145.669 39.6735 145.592 40.3243 145.5 40.8681C145.415 41.4058 145.302 41.8427 145.161 42.1787C145.027 42.5148 144.859 42.7622 144.657 42.9211C144.462 43.0739 144.227 43.1502 143.952 43.1502C143.854 43.1502 143.759 43.1411 143.667 43.1227C143.576 43.1105 143.496 43.0891 143.429 43.0586V42.3162C143.472 42.3284 143.518 42.3406 143.567 42.3529C143.622 42.359 143.677 42.362 143.732 42.362C143.854 42.362 143.964 42.3132 144.062 42.2154C144.165 42.1176 144.257 41.9649 144.336 41.7571C144.422 41.5494 144.498 41.2805 144.566 40.9506C144.639 40.6145 144.7 40.2143 144.749 39.7499C144.804 39.2855 144.853 38.7478 144.896 38.1368H148.103V43.0769Z" fill="#0B1C24"/>
<path d="M150.062 43.0769H148.962L150.355 41.0422C150.166 40.9811 149.985 40.8956 149.814 40.7856C149.649 40.6756 149.515 40.5229 149.411 40.3273C149.307 40.1318 149.255 39.8935 149.255 39.6124C149.255 39.1358 149.423 38.7723 149.759 38.5218C150.095 38.2651 150.535 38.1368 151.079 38.1368H153.315V43.0769H152.344V41.1522H151.281L150.062 43.0769ZM150.199 39.6216C150.199 39.8843 150.297 40.0829 150.492 40.2174C150.688 40.3457 150.96 40.4098 151.308 40.4098H152.344V38.8884H151.143C150.807 38.8884 150.566 38.9586 150.419 39.0992C150.272 39.2397 150.199 39.4139 150.199 39.6216Z" fill="#0B1C24"/>
<path d="M159.136 38.0452C159.759 38.0452 160.224 38.1827 160.529 38.4576C160.835 38.7265 160.988 39.1511 160.988 39.7316V43.0769H160.3L160.108 42.3895H160.071C159.931 42.5667 159.784 42.7134 159.631 42.8295C159.485 42.9456 159.313 43.0311 159.118 43.0861C158.928 43.1411 158.696 43.1686 158.421 43.1686C158.128 43.1686 157.862 43.1166 157.624 43.0128C157.392 42.9028 157.208 42.7378 157.074 42.5178C156.94 42.2918 156.872 42.0107 156.872 41.6746C156.872 41.1736 157.062 40.7917 157.441 40.529C157.826 40.2662 158.409 40.1226 159.191 40.0982L160.034 40.0707V39.7957C160.034 39.4291 159.952 39.1725 159.787 39.0259C159.622 38.8792 159.39 38.8059 159.09 38.8059C158.834 38.8059 158.589 38.8426 158.357 38.9159C158.125 38.9892 157.905 39.0778 157.697 39.1817L157.386 38.4759C157.618 38.3537 157.884 38.2529 158.183 38.1735C158.489 38.0879 158.806 38.0452 159.136 38.0452ZM159.365 40.7214C158.803 40.7459 158.412 40.8406 158.192 41.0056C157.978 41.1644 157.871 41.3905 157.871 41.6838C157.871 41.9404 157.948 42.1268 158.101 42.2429C158.259 42.359 158.458 42.417 158.696 42.417C159.081 42.417 159.399 42.3101 159.649 42.0962C159.9 41.8824 160.025 41.5616 160.025 41.1339V40.7031L159.365 40.7214Z" fill="#0B1C24"/>
<path d="M166.58 39.3925C166.58 39.6919 166.489 39.9302 166.305 40.1074C166.128 40.2785 165.89 40.3945 165.591 40.4556V40.4923C165.908 40.5351 166.177 40.6481 166.397 40.8314C166.623 41.0086 166.736 41.2714 166.736 41.6196C166.736 41.8335 166.697 42.029 166.617 42.2062C166.538 42.3834 166.415 42.5392 166.251 42.6737C166.086 42.802 165.872 42.9028 165.609 42.9761C165.352 43.0433 165.041 43.0769 164.674 43.0769H162.484V38.1368H164.674C165.035 38.1368 165.358 38.1765 165.646 38.256C165.933 38.3354 166.159 38.4668 166.324 38.6501C166.495 38.8334 166.58 39.0809 166.58 39.3925ZM165.728 41.6013C165.728 41.3447 165.63 41.1614 165.435 41.0514C165.239 40.9353 164.949 40.8773 164.564 40.8773H163.455V42.3437H164.582C164.943 42.3437 165.224 42.2887 165.426 42.1787C165.627 42.0626 165.728 41.8702 165.728 41.6013ZM165.591 39.5025C165.591 39.2886 165.514 39.1328 165.361 39.035C165.209 38.9373 164.961 38.8884 164.619 38.8884H163.455V40.1349H164.472C164.839 40.1349 165.117 40.086 165.306 39.9882C165.496 39.8843 165.591 39.7224 165.591 39.5025Z" fill="#0B1C24"/>
<path d="M171.519 38.9159H169.906V43.0769H168.943V38.9159H167.339V38.1368H171.519V38.9159Z" fill="#0B1C24"/>
<path d="M176.745 40.6023C176.745 41.0117 176.69 41.3752 176.58 41.693C176.47 42.0107 176.315 42.2795 176.113 42.4995C175.911 42.7195 175.667 42.8875 175.38 43.0036C175.092 43.1136 174.769 43.1686 174.408 43.1686C174.078 43.1686 173.773 43.1136 173.492 43.0036C173.211 42.8875 172.966 42.7195 172.758 42.4995C172.557 42.2795 172.398 42.0107 172.282 41.693C172.166 41.3752 172.108 41.0086 172.108 40.5931C172.108 40.0493 172.199 39.588 172.383 39.2092C172.572 38.8303 172.841 38.5432 173.189 38.3476C173.544 38.146 173.959 38.0452 174.436 38.0452C174.888 38.0452 175.285 38.146 175.627 38.3476C175.975 38.5432 176.247 38.8303 176.443 39.2092C176.644 39.588 176.745 40.0524 176.745 40.6023ZM173.107 40.6023C173.107 40.9689 173.152 41.2866 173.244 41.5555C173.336 41.8182 173.479 42.0199 173.675 42.1604C173.87 42.3009 174.121 42.3712 174.426 42.3712C174.732 42.3712 174.982 42.3009 175.178 42.1604C175.374 42.0199 175.517 41.8182 175.609 41.5555C175.7 41.2866 175.746 40.9689 175.746 40.6023C175.746 40.2235 175.697 39.9057 175.6 39.6491C175.508 39.3925 175.364 39.1969 175.169 39.0625C174.979 38.922 174.729 38.8517 174.417 38.8517C173.959 38.8517 173.626 39.0045 173.418 39.31C173.211 39.6155 173.107 40.0463 173.107 40.6023Z" fill="#0B1C24"/>
<path d="M179.966 43.1686C179.514 43.1686 179.116 43.08 178.774 42.9028C178.432 42.7256 178.166 42.4506 177.977 42.0779C177.787 41.6991 177.693 41.2194 177.693 40.639C177.693 40.0279 177.794 39.533 177.995 39.1542C178.203 38.7753 178.481 38.4973 178.829 38.3201C179.184 38.1368 179.587 38.0452 180.039 38.0452C180.314 38.0452 180.571 38.0757 180.809 38.1368C181.053 38.1918 181.255 38.256 181.414 38.3293L181.121 39.1175C180.949 39.0503 180.766 38.9923 180.571 38.9434C180.381 38.8945 180.201 38.87 180.03 38.87C179.724 38.87 179.471 38.9373 179.269 39.0717C179.074 39.2 178.927 39.3955 178.829 39.6583C178.738 39.9149 178.692 40.2387 178.692 40.6298C178.692 41.0025 178.741 41.3172 178.838 41.5738C178.936 41.8304 179.08 42.026 179.269 42.1604C179.465 42.2887 179.706 42.3529 179.993 42.3529C180.268 42.3529 180.51 42.3223 180.717 42.2612C180.925 42.2001 181.121 42.1207 181.304 42.0229V42.8661C181.127 42.97 180.934 43.0464 180.726 43.0953C180.519 43.1441 180.265 43.1686 179.966 43.1686Z" fill="#0B1C24"/>
<path d="M184.413 38.0452C184.847 38.0452 185.22 38.1368 185.531 38.3201C185.843 38.4973 186.081 38.754 186.246 39.09C186.417 39.4261 186.503 39.8232 186.503 40.2815V40.8131H183.185C183.197 41.3202 183.328 41.7082 183.579 41.9771C183.836 42.2459 184.193 42.3804 184.651 42.3804C184.969 42.3804 185.25 42.3529 185.495 42.2979C185.745 42.2368 186.002 42.1482 186.264 42.0321V42.8386C186.02 42.9486 185.77 43.0311 185.513 43.0861C185.262 43.1411 184.963 43.1686 184.615 43.1686C184.138 43.1686 183.716 43.0739 183.35 42.8845C182.983 42.695 182.696 42.414 182.488 42.0412C182.287 41.6624 182.186 41.198 182.186 40.6481C182.186 40.0921 182.278 39.6216 182.461 39.2367C182.65 38.8517 182.91 38.5584 183.24 38.3568C183.576 38.149 183.967 38.0452 184.413 38.0452ZM184.413 38.7967C184.065 38.7967 183.784 38.9098 183.57 39.1358C183.362 39.3619 183.24 39.6827 183.203 40.0982H185.531C185.531 39.8416 185.492 39.6155 185.412 39.42C185.333 39.2244 185.21 39.0717 185.045 38.9617C184.88 38.8517 184.67 38.7967 184.413 38.7967Z" fill="#0B1C24"/>
<path d="M190.18 38.0452C190.773 38.0452 191.25 38.259 191.61 38.6867C191.977 39.1145 192.16 39.753 192.16 40.6023C192.16 41.1583 192.078 41.6288 191.913 42.0137C191.748 42.3987 191.516 42.6889 191.216 42.8845C190.917 43.0739 190.568 43.1686 190.171 43.1686C189.921 43.1686 189.701 43.138 189.511 43.0769C189.322 43.0097 189.16 42.9242 189.026 42.8203C188.897 42.7103 188.784 42.5942 188.687 42.472H188.622C188.641 42.582 188.656 42.7134 188.668 42.8661C188.68 43.0128 188.687 43.1441 188.687 43.2602V45.2766H187.715V38.1368H188.503L188.641 38.7967H188.687C188.784 38.6623 188.9 38.537 189.035 38.4209C189.169 38.3049 189.331 38.2132 189.521 38.146C189.71 38.0788 189.93 38.0452 190.18 38.0452ZM189.951 38.8426C189.646 38.8426 189.401 38.9037 189.218 39.0259C189.035 39.142 188.9 39.3191 188.815 39.5574C188.735 39.7896 188.693 40.086 188.687 40.4465V40.5931C188.687 40.972 188.726 41.2958 188.806 41.5646C188.885 41.8274 189.016 42.029 189.2 42.1696C189.389 42.304 189.646 42.3712 189.97 42.3712C190.245 42.3712 190.468 42.2979 190.639 42.1512C190.816 41.9985 190.947 41.7877 191.033 41.5188C191.118 41.25 191.161 40.9384 191.161 40.584C191.161 40.0463 191.063 39.6216 190.868 39.31C190.672 38.9984 190.367 38.8426 189.951 38.8426Z" fill="#0B1C24"/>
<path d="M197.495 39.3925C197.495 39.6919 197.404 39.9302 197.22 40.1074C197.043 40.2785 196.805 40.3945 196.506 40.4556V40.4923C196.823 40.5351 197.092 40.6481 197.312 40.8314C197.538 41.0086 197.651 41.2714 197.651 41.6196C197.651 41.8335 197.612 42.029 197.532 42.2062C197.453 42.3834 197.33 42.5392 197.166 42.6737C197.001 42.802 196.787 42.9028 196.524 42.9761C196.267 43.0433 195.956 43.0769 195.589 43.0769H193.399V38.1368H195.589C195.95 38.1368 196.273 38.1765 196.561 38.256C196.848 38.3354 197.074 38.4668 197.239 38.6501C197.41 38.8334 197.495 39.0809 197.495 39.3925ZM196.643 41.6013C196.643 41.3447 196.545 41.1614 196.35 41.0514C196.154 40.9353 195.864 40.8773 195.479 40.8773H194.37V42.3437H195.497C195.858 42.3437 196.139 42.2887 196.341 42.1787C196.542 42.0626 196.643 41.8702 196.643 41.6013ZM196.506 39.5025C196.506 39.2886 196.429 39.1328 196.276 39.035C196.124 38.9373 195.876 38.8884 195.534 38.8884H194.37V40.1349H195.387C195.754 40.1349 196.032 40.086 196.221 39.9882C196.411 39.8843 196.506 39.7224 196.506 39.5025Z" fill="#0B1C24"/>
<path d="M199.748 40.8314C199.748 40.9047 199.745 40.9995 199.739 41.1156C199.733 41.2316 199.727 41.3538 199.721 41.4822C199.715 41.6044 199.705 41.7205 199.693 41.8304C199.687 41.9343 199.681 42.0168 199.675 42.0779L202.214 38.1368H203.396V43.0769H202.48V40.4465C202.48 40.3304 202.483 40.1868 202.489 40.0157C202.495 39.8446 202.501 39.6796 202.507 39.5208C202.519 39.3558 202.528 39.2306 202.535 39.145L200.014 43.0769H198.823V38.1368H199.748V40.8314Z" fill="#0B1C24"/>
<path d="M206.916 43.1686C206.464 43.1686 206.066 43.08 205.724 42.9028C205.382 42.7256 205.116 42.4506 204.927 42.0779C204.737 41.6991 204.643 41.2194 204.643 40.639C204.643 40.0279 204.743 39.533 204.945 39.1542C205.153 38.7753 205.431 38.4973 205.779 38.3201C206.134 38.1368 206.537 38.0452 206.989 38.0452C207.264 38.0452 207.521 38.0757 207.759 38.1368C208.003 38.1918 208.205 38.256 208.364 38.3293L208.07 39.1175C207.899 39.0503 207.716 38.9923 207.521 38.9434C207.331 38.8945 207.151 38.87 206.98 38.87C206.674 38.87 206.421 38.9373 206.219 39.0717C206.024 39.2 205.877 39.3955 205.779 39.6583C205.688 39.9149 205.642 40.2387 205.642 40.6298C205.642 41.0025 205.691 41.3172 205.788 41.5738C205.886 41.8304 206.03 42.026 206.219 42.1604C206.415 42.2887 206.656 42.3529 206.943 42.3529C207.218 42.3529 207.459 42.3223 207.667 42.2612C207.875 42.2001 208.07 42.1207 208.254 42.0229V42.8661C208.077 42.97 207.884 43.0464 207.676 43.0953C207.469 43.1441 207.215 43.1686 206.916 43.1686Z" fill="#0B1C24"/>
<path d="M213.773 40.6023C213.773 41.0117 213.718 41.3752 213.608 41.693C213.499 42.0107 213.343 42.2795 213.141 42.4995C212.939 42.7195 212.695 42.8875 212.408 43.0036C212.121 43.1136 211.797 43.1686 211.436 43.1686C211.106 43.1686 210.801 43.1136 210.52 43.0036C210.239 42.8875 209.994 42.7195 209.787 42.4995C209.585 42.2795 209.426 42.0107 209.31 41.693C209.194 41.3752 209.136 41.0086 209.136 40.5931C209.136 40.0493 209.227 39.588 209.411 39.2092C209.6 38.8303 209.869 38.5432 210.217 38.3476C210.572 38.146 210.987 38.0452 211.464 38.0452C211.916 38.0452 212.313 38.146 212.655 38.3476C213.004 38.5432 213.275 38.8303 213.471 39.2092C213.673 39.588 213.773 40.0524 213.773 40.6023ZM210.135 40.6023C210.135 40.9689 210.181 41.2866 210.272 41.5555C210.364 41.8182 210.508 42.0199 210.703 42.1604C210.899 42.3009 211.149 42.3712 211.455 42.3712C211.76 42.3712 212.011 42.3009 212.206 42.1604C212.402 42.0199 212.545 41.8182 212.637 41.5555C212.729 41.2866 212.774 40.9689 212.774 40.6023C212.774 40.2235 212.726 39.9057 212.628 39.6491C212.536 39.3925 212.393 39.1969 212.197 39.0625C212.008 38.922 211.757 38.8517 211.445 38.8517C210.987 38.8517 210.654 39.0045 210.446 39.31C210.239 39.6155 210.135 40.0463 210.135 40.6023Z" fill="#0B1C24"/>
<path d="M219.102 39.3925C219.102 39.6919 219.01 39.9302 218.827 40.1074C218.65 40.2785 218.411 40.3945 218.112 40.4556V40.4923C218.43 40.5351 218.699 40.6481 218.919 40.8314C219.145 41.0086 219.258 41.2714 219.258 41.6196C219.258 41.8335 219.218 42.029 219.139 42.2062C219.059 42.3834 218.937 42.5392 218.772 42.6737C218.607 42.802 218.393 42.9028 218.13 42.9761C217.874 43.0433 217.562 43.0769 217.196 43.0769H215.005V38.1368H217.196C217.556 38.1368 217.88 38.1765 218.167 38.256C218.454 38.3354 218.68 38.4668 218.845 38.6501C219.016 38.8334 219.102 39.0809 219.102 39.3925ZM218.25 41.6013C218.25 41.3447 218.152 41.1614 217.956 41.0514C217.761 40.9353 217.471 40.8773 217.086 40.8773H215.977V42.3437H217.104C217.464 42.3437 217.745 42.2887 217.947 42.1787C218.149 42.0626 218.25 41.8702 218.25 41.6013ZM218.112 39.5025C218.112 39.2886 218.036 39.1328 217.883 39.035C217.73 38.9373 217.483 38.8884 217.141 38.8884H215.977V40.1349H216.994C217.361 40.1349 217.639 40.086 217.828 39.9882C218.017 39.8843 218.112 39.7224 218.112 39.5025Z" fill="#0B1C24"/>
<path d="M69.5097 53.6628C69.5097 53.7362 69.5066 53.8309 69.5005 53.947C69.4944 54.0631 69.4883 54.1853 69.4822 54.3136C69.4761 54.4358 69.4669 54.5519 69.4547 54.6619C69.4486 54.7657 69.4425 54.8482 69.4363 54.9093L71.9751 50.9683H73.1574V55.9083H72.2409V53.2779C72.2409 53.1618 72.244 53.0182 72.2501 52.8471C72.2562 52.6761 72.2623 52.5111 72.2684 52.3522C72.2806 52.1872 72.2898 52.062 72.2959 51.9764L69.7755 55.9083H68.584V50.9683H69.5097V53.6628Z" fill="#0B1C24"/>
<path d="M83.9613 50.9683V55.9083H77.069V50.9683H78.0406V55.1293H80.0294V50.9683H81.0009V55.1293H82.9898V50.9683H83.9613Z" fill="#0B1C24"/>
<path d="M86.4171 53.6628C86.4171 53.7362 86.4141 53.8309 86.408 53.947C86.4019 54.0631 86.3958 54.1853 86.3896 54.3136C86.3835 54.4358 86.3744 54.5519 86.3621 54.6619C86.356 54.7657 86.3499 54.8482 86.3438 54.9093L88.8826 50.9683H90.0649V55.9083H89.1484V53.2779C89.1484 53.1618 89.1515 53.0182 89.1576 52.8471C89.1637 52.6761 89.1698 52.5111 89.1759 52.3522C89.1881 52.1872 89.1973 52.062 89.2034 51.9764L86.6829 55.9083H85.4914V50.9683H86.4171V53.6628Z" fill="#0B1C24"/>
<path d="M92.5672 50.9683V52.9755H95.0052V50.9683H95.9767V55.9083H95.0052V53.7545H92.5672V55.9083H91.5957V50.9683H92.5672Z" fill="#0B1C24"/>
<path d="M101.848 53.4337C101.848 53.8431 101.793 54.2067 101.683 54.5244C101.573 54.8421 101.417 55.111 101.215 55.3309C101.014 55.5509 100.769 55.7189 100.482 55.835C100.195 55.945 99.8709 56 99.5104 56C99.1805 56 98.875 55.945 98.5939 55.835C98.3128 55.7189 98.0684 55.5509 97.8607 55.3309C97.659 55.111 97.5002 54.8421 97.3841 54.5244C97.268 54.2067 97.2099 53.84 97.2099 53.4246C97.2099 52.8807 97.3016 52.4194 97.4849 52.0406C97.6743 51.6618 97.9431 51.3746 98.2914 51.1791C98.6458 50.9774 99.0613 50.8766 99.5379 50.8766C99.9901 50.8766 100.387 50.9774 100.729 51.1791C101.078 51.3746 101.35 51.6618 101.545 52.0406C101.747 52.4194 101.848 52.8838 101.848 53.4337ZM98.2089 53.4337C98.2089 53.8003 98.2548 54.1181 98.3464 54.3869C98.4381 54.6496 98.5817 54.8513 98.7772 54.9918C98.9727 55.1324 99.2232 55.2026 99.5287 55.2026C99.8343 55.2026 100.085 55.1324 100.28 54.9918C100.476 54.8513 100.619 54.6496 100.711 54.3869C100.803 54.1181 100.849 53.8003 100.849 53.4337C100.849 53.0549 100.8 52.7372 100.702 52.4805C100.61 52.2239 100.467 52.0284 100.271 51.8939C100.082 51.7534 99.8312 51.6831 99.5196 51.6831C99.0613 51.6831 98.7283 51.8359 98.5206 52.1414C98.3128 52.4469 98.2089 52.8777 98.2089 53.4337Z" fill="#0B1C24"/>
<path d="M108.652 50.9683V55.9083H107.772V52.9755C107.772 52.8105 107.775 52.6455 107.781 52.4805C107.793 52.3094 107.805 52.1475 107.818 51.9948H107.79L106.25 55.9083H105.471L103.959 51.9948H103.922C103.941 52.1475 103.953 52.3094 103.959 52.4805C103.965 52.6455 103.968 52.8196 103.968 53.0029V55.9083H103.079V50.9683H104.408L105.865 54.7535L107.35 50.9683H108.652Z" fill="#0B1C24"/>
<path d="M114.539 53.4337C114.539 53.8431 114.484 54.2067 114.374 54.5244C114.264 54.8421 114.109 55.111 113.907 55.3309C113.705 55.5509 113.461 55.7189 113.174 55.835C112.887 55.945 112.563 56 112.202 56C111.872 56 111.567 55.945 111.286 55.835C111.005 55.7189 110.76 55.5509 110.552 55.3309C110.351 55.111 110.192 54.8421 110.076 54.5244C109.96 54.2067 109.902 53.84 109.902 53.4246C109.902 52.8807 109.993 52.4194 110.177 52.0406C110.366 51.6618 110.635 51.3746 110.983 51.1791C111.338 50.9774 111.753 50.8766 112.23 50.8766C112.682 50.8766 113.079 50.9774 113.421 51.1791C113.769 51.3746 114.041 51.6618 114.237 52.0406C114.439 52.4194 114.539 52.8838 114.539 53.4337ZM110.901 53.4337C110.901 53.8003 110.947 54.1181 111.038 54.3869C111.13 54.6496 111.273 54.8513 111.469 54.9918C111.665 55.1324 111.915 55.2026 112.221 55.2026C112.526 55.2026 112.777 55.1324 112.972 54.9918C113.168 54.8513 113.311 54.6496 113.403 54.3869C113.495 54.1181 113.54 53.8003 113.54 53.4337C113.54 53.0549 113.491 52.7372 113.394 52.4805C113.302 52.2239 113.158 52.0284 112.963 51.8939C112.774 51.7534 112.523 51.6831 112.211 51.6831C111.753 51.6831 111.42 51.8359 111.212 52.1414C111.005 52.4469 110.901 52.8777 110.901 53.4337Z" fill="#0B1C24"/>
<path d="M116.742 50.9683V52.9755H119.18V50.9683H120.152V55.9083H119.18V53.7545H116.742V55.9083H115.771V50.9683H116.742Z" fill="#0B1C24"/>
<path d="M125.28 51.7473H123.667V55.9083H122.705V51.7473H121.101V50.9683H125.28V51.7473Z" fill="#0B1C24"/>
<path d="M128.159 50.8766C128.782 50.8766 129.246 51.0141 129.552 51.289C129.857 51.5579 130.01 51.9825 130.01 52.563V55.9083H129.323L129.13 55.221H129.093C128.953 55.3981 128.806 55.5448 128.654 55.6609C128.507 55.777 128.336 55.8625 128.14 55.9175C127.951 55.9725 127.719 56 127.444 56C127.15 56 126.885 55.9481 126.646 55.8442C126.414 55.7342 126.231 55.5692 126.096 55.3493C125.962 55.1232 125.895 54.8421 125.895 54.5061C125.895 54.005 126.084 53.6231 126.463 53.3604C126.848 53.0977 127.431 52.9541 128.214 52.9296L129.057 52.9021V52.6272C129.057 52.2606 128.974 52.0039 128.809 51.8573C128.644 51.7106 128.412 51.6373 128.113 51.6373C127.856 51.6373 127.612 51.674 127.38 51.7473C127.147 51.8206 126.927 51.9092 126.72 52.0131L126.408 51.3074C126.64 51.1852 126.906 51.0843 127.205 51.0049C127.511 50.9194 127.829 50.8766 128.159 50.8766ZM128.388 53.5529C127.826 53.5773 127.435 53.672 127.215 53.837C127.001 53.9959 126.894 54.2219 126.894 54.5152C126.894 54.7719 126.97 54.9582 127.123 55.0743C127.282 55.1904 127.48 55.2484 127.719 55.2484C128.104 55.2484 128.421 55.1415 128.672 54.9277C128.922 54.7138 129.048 54.393 129.048 53.9653V53.5345L128.388 53.5529Z" fill="#0B1C24"/>
<path d="M137.757 50.9683L135.786 53.3604L137.931 55.9083H136.858L134.796 53.4062V55.9083H133.889V53.4062L131.827 55.9083H130.754L132.899 53.3604L130.928 50.9683H131.964L133.889 53.3696V50.9683H134.796V53.3696L136.73 50.9683H137.757Z" fill="#0B1C24"/>
<path d="M140.627 50.8766C141.25 50.8766 141.714 51.0141 142.02 51.289C142.325 51.5579 142.478 51.9825 142.478 52.563V55.9083H141.791L141.598 55.221H141.561C141.421 55.3981 141.274 55.5448 141.122 55.6609C140.975 55.777 140.804 55.8625 140.608 55.9175C140.419 55.9725 140.187 56 139.912 56C139.618 56 139.353 55.9481 139.114 55.8442C138.882 55.7342 138.699 55.5692 138.564 55.3493C138.43 55.1232 138.363 54.8421 138.363 54.5061C138.363 54.005 138.552 53.6231 138.931 53.3604C139.316 53.0977 139.899 52.9541 140.682 52.9296L141.525 52.9021V52.6272C141.525 52.2606 141.442 52.0039 141.277 51.8573C141.112 51.7106 140.88 51.6373 140.581 51.6373C140.324 51.6373 140.08 51.674 139.848 51.7473C139.615 51.8206 139.395 51.9092 139.188 52.0131L138.876 51.3074C139.108 51.1852 139.374 51.0843 139.673 51.0049C139.979 50.9194 140.297 50.8766 140.627 50.8766ZM140.856 53.5529C140.294 53.5773 139.903 53.672 139.683 53.837C139.469 53.9959 139.362 54.2219 139.362 54.5152C139.362 54.7719 139.438 54.9582 139.591 55.0743C139.75 55.1904 139.948 55.2484 140.187 55.2484C140.572 55.2484 140.889 55.1415 141.14 54.9277C141.39 54.7138 141.516 54.393 141.516 53.9653V53.5345L140.856 53.5529Z" fill="#0B1C24"/>
<path fill-rule="evenodd" clip-rule="evenodd" d="M0 31.061C3.43012 31.061 6.21108 28.2756 6.21108 24.8396L6.21122 0.0136425H0V31.061Z" fill="#008DD2"/>
<path fill-rule="evenodd" clip-rule="evenodd" d="M55.9023 31.0538C52.4722 31.0538 49.6914 28.2684 49.6913 24.8323L49.6911 0.00600662H55.9023V31.0538Z" fill="#0B1C24"/>
<path fill-rule="evenodd" clip-rule="evenodd" d="M55.901 49.6819V55.8915C38.749 55.8915 24.8447 41.9912 24.8447 24.8442H31.056C31.056 38.5617 42.1794 49.6819 55.901 49.6819Z" fill="#0B1C24"/>
<path fill-rule="evenodd" clip-rule="evenodd" d="M24.8447 24.8442H31.056L31.0561 0.00600662H24.8449L24.8447 24.8442ZM0 49.682V55.8916C17.1519 55.8916 31.056 41.9912 31.056 24.8442H24.8447C24.8447 38.5617 13.7216 49.682 0 49.682Z" fill="#008DD2"/>
<path fill-rule="evenodd" clip-rule="evenodd" d="M43.4858 24.8379H37.2746V0H43.4858V24.8379ZM55.9083 37.2568V43.4663C45.6171 43.4663 37.2746 35.1261 37.2746 24.8379H43.4858C43.4858 31.6965 49.0474 37.2568 55.9083 37.2568Z" fill="#0B1C24"/>
<path fill-rule="evenodd" clip-rule="evenodd" d="M12.4298 24.8379H18.641V0H12.4298V24.8379ZM0.00737017 37.2568V43.4663C10.2985 43.4663 18.641 35.1261 18.641 24.8379H12.4298C12.4298 31.6965 6.86815 37.2568 0.00737017 37.2568Z" fill="#008DD2"/>
<path d="M221.465 0L213.208 12.102L221.467 25.6556H212.341L208.387 19.1671L203.96 25.6536L196.704 25.6628L204.967 13.5544L196.708 0.00209957H205.834L209.787 6.48958L214.215 0.000617964L221.465 0Z" fill="#0B1C24"/>
<path d="M195.314 19.5401V25.6555H176.078V0.00200687H195.314V5.92485H183.78V9.65556H193.092V15.3479H183.78V19.5401H195.314Z" fill="#0B1C24"/>
<path d="M167.535 6.15574V25.6555H160.101V6.15574H153.786V0.00200687H173.849V6.15574H167.535Z" fill="#0B1C24"/>
<path d="M151.558 0.00200687V25.6555H143.702V15.6941H137.763V25.6555H129.908V0.00200687H137.763V9.46332H143.702V0.00200687H151.558Z" fill="#0B1C24"/>
<path d="M112.272 22.9502V25.6555H104.647V0.00200687H112.272L112.26 14.7524L118.863 2.74556V0.00200687H126.488V25.6555H118.863L118.857 10.9772L112.272 22.9502Z" fill="#0B1C24"/>
<path d="M67.501 25.6555V0.00200687H75.1264V19.6171H80.5676V0.00200687H88.1934V19.6171H93.6348V0.00200687H101.26V25.6555H67.501Z" fill="#0B1C24"/>
</svg>
