<svg width="209" height="53" viewBox="0 0 209 53" fill="none" xmlns="http://www.w3.org/2000/svg">
<path d="M70.276 37.6638C70.276 38.1438 70.2155 38.5804 70.0944 38.9737C69.9791 39.3611 69.8003 39.6965 69.5581 39.9799C69.3217 40.2632 69.0219 40.4801 68.6586 40.6304C68.3011 40.7808 67.883 40.856 67.4044 40.856C66.9143 40.856 66.4876 40.7808 66.1243 40.6304C65.7668 40.4743 65.467 40.2574 65.2248 39.9799C64.9884 39.6965 64.8125 39.3582 64.6972 38.965C64.5819 38.5717 64.5242 38.1351 64.5242 37.6552C64.5242 37.019 64.628 36.4639 64.8356 35.9897C65.0432 35.5155 65.3603 35.1454 65.787 34.8794C66.2195 34.6134 66.7615 34.4804 67.4131 34.4804C68.0474 34.4804 68.575 34.6134 68.9959 34.8794C69.4226 35.1396 69.7426 35.5097 69.956 35.9897C70.1693 36.4639 70.276 37.0219 70.276 37.6638ZM65.5102 37.6638C65.5102 38.1612 65.5765 38.5891 65.7092 38.9476C65.8418 39.3004 66.0494 39.5751 66.3319 39.7717C66.6145 39.9625 66.972 40.0579 67.4044 40.0579C67.8427 40.0579 68.2002 39.9625 68.477 39.7717C68.7537 39.5751 68.9584 39.3004 69.0911 38.9476C69.2237 38.5891 69.29 38.1612 69.29 37.6638C69.29 36.9178 69.1401 36.3367 68.8402 35.9203C68.5462 35.4981 68.0704 35.2871 67.4131 35.2871C66.9749 35.2871 66.6145 35.3825 66.3319 35.5733C66.0494 35.7642 65.8418 36.036 65.7092 36.3887C65.5765 36.7415 65.5102 37.1665 65.5102 37.6638Z" fill="#3E5A67"/>
<path d="M71.2548 37.9674C71.2548 37.2793 71.3268 36.6952 71.471 36.2152C71.6209 35.7352 71.8516 35.3536 72.1629 35.0702C72.4743 34.7811 72.878 34.5845 73.3738 34.4804C73.7314 34.411 74.0802 34.3474 74.4204 34.2895C74.7664 34.2317 75.1008 34.1796 75.4237 34.1334L75.5535 34.9401C75.4093 34.9574 75.245 34.9806 75.0605 35.0095C74.8817 35.0384 74.6972 35.0673 74.5069 35.0962C74.3224 35.1251 74.1436 35.1541 73.9706 35.183C73.8034 35.2119 73.6535 35.2408 73.5209 35.2697C73.3191 35.3044 73.1403 35.3651 72.9846 35.4519C72.8347 35.5386 72.705 35.6543 72.5954 35.7989C72.4916 35.9434 72.408 36.1285 72.3446 36.354C72.2811 36.5738 72.2437 36.8427 72.2321 37.1607H72.284C72.3648 37.0508 72.4714 36.9381 72.604 36.8224C72.7424 36.7068 72.9068 36.6113 73.0971 36.5362C73.2931 36.4552 73.518 36.4147 73.7717 36.4147C74.1638 36.4147 74.4954 36.5015 74.7664 36.675C75.0374 36.8427 75.2421 37.0827 75.3805 37.3949C75.5189 37.7014 75.5881 38.0686 75.5881 38.4966C75.5881 39.0228 75.4958 39.4623 75.3113 39.8151C75.1326 40.162 74.8788 40.4223 74.5502 40.5957C74.2272 40.7692 73.8496 40.856 73.4171 40.856C73.0884 40.856 72.7915 40.7953 72.5262 40.6738C72.261 40.5466 72.0332 40.3615 71.8429 40.1187C71.6526 39.87 71.5056 39.5664 71.4018 39.2079C71.3038 38.8493 71.2548 38.4358 71.2548 37.9674ZM73.4863 40.1013C73.7169 40.1013 73.9188 40.0522 74.0917 39.9538C74.2647 39.8555 74.3974 39.6965 74.4896 39.4768C74.5876 39.257 74.6367 38.9621 74.6367 38.592C74.6367 38.1467 74.5559 37.7939 74.3945 37.5337C74.233 37.2735 73.9649 37.1434 73.5901 37.1434C73.3594 37.1434 73.1461 37.1983 72.95 37.3082C72.7597 37.4123 72.5983 37.5308 72.4657 37.6638C72.3388 37.7968 72.2494 37.9096 72.1975 38.0021C72.1975 38.2739 72.2148 38.5342 72.2494 38.7828C72.2898 39.0315 72.3561 39.2541 72.4484 39.4507C72.5464 39.6474 72.679 39.8064 72.8462 39.9278C73.0135 40.0435 73.2268 40.1013 73.4863 40.1013Z" fill="#3E5A67"/>
<path d="M80.868 38.4272C80.868 38.8146 80.8161 39.1587 80.7124 39.4594C80.6086 39.7601 80.4615 40.0146 80.2712 40.2227C80.0809 40.4309 79.8503 40.59 79.5793 40.6998C79.3083 40.8039 79.0027 40.856 78.6625 40.856C78.3511 40.856 78.0628 40.8039 77.7975 40.6998C77.5323 40.59 77.3016 40.4309 77.1056 40.2227C76.9153 40.0146 76.7654 39.7601 76.6558 39.4594C76.5462 39.1587 76.4915 38.8117 76.4915 38.4185C76.4915 37.9038 76.578 37.4672 76.7509 37.1087C76.9297 36.7501 77.1834 36.4783 77.5121 36.2933C77.8465 36.1025 78.2386 36.007 78.6884 36.007C79.1151 36.007 79.4899 36.1025 79.8128 36.2933C80.1415 36.4783 80.3981 36.7501 80.5826 37.1087C80.7729 37.4672 80.868 37.9067 80.868 38.4272ZM77.4342 38.4272C77.4342 38.7741 77.4775 39.0749 77.564 39.3293C77.6505 39.578 77.786 39.7688 77.9705 39.9018C78.155 40.0348 78.3914 40.1013 78.6798 40.1013C78.9681 40.1013 79.2045 40.0348 79.389 39.9018C79.5735 39.7688 79.709 39.578 79.7955 39.3293C79.882 39.0749 79.9253 38.7741 79.9253 38.4272C79.9253 38.0686 79.8791 37.7679 79.7869 37.525C79.7004 37.2822 79.5649 37.0971 79.3804 36.9699C79.2016 36.8369 78.9652 36.7704 78.6711 36.7704C78.2386 36.7704 77.9244 36.9149 77.7283 37.2041C77.5323 37.4932 77.4342 37.9009 77.4342 38.4272Z" fill="#3E5A67"/>
<path d="M84.357 36.007C84.9163 36.007 85.3661 36.2094 85.7063 36.6142C86.0523 37.019 86.2252 37.6233 86.2252 38.4272C86.2252 38.9534 86.1474 39.3987 85.9917 39.763C85.836 40.1273 85.6169 40.402 85.3344 40.5871C85.0518 40.7663 84.7231 40.856 84.3483 40.856C84.1119 40.856 83.9043 40.8271 83.7256 40.7692C83.5468 40.7056 83.394 40.6247 83.2672 40.5264C83.1461 40.4223 83.0394 40.3124 82.9471 40.1967H82.8866C82.9039 40.3008 82.9183 40.4252 82.9298 40.5697C82.9414 40.7085 82.9471 40.8328 82.9471 40.9427V42.8511H82.0303V36.0938H82.7741L82.9039 36.7183H82.9471C83.0394 36.5911 83.1489 36.4726 83.2758 36.3627C83.4027 36.2528 83.5555 36.1661 83.7342 36.1025C83.913 36.0388 84.1206 36.007 84.357 36.007ZM84.1407 36.7617C83.8524 36.7617 83.6218 36.8195 83.4488 36.9352C83.2758 37.0451 83.1489 37.2128 83.0682 37.4383C82.9933 37.658 82.9529 37.9385 82.9471 38.2797V38.4185C82.9471 38.777 82.9846 39.0835 83.0596 39.338C83.1345 39.5866 83.2585 39.7775 83.4315 39.9105C83.6102 40.0377 83.8524 40.1013 84.158 40.1013C84.4175 40.1013 84.628 40.0319 84.7894 39.8931C84.9567 39.7486 85.0806 39.549 85.1614 39.2946C85.2421 39.0402 85.2825 38.7452 85.2825 38.4098C85.2825 37.9009 85.1902 37.499 85.0057 37.2041C84.8212 36.9092 84.5328 36.7617 84.1407 36.7617Z" fill="#3E5A67"/>
<path d="M86.6002 36.0938H87.5862L88.555 38.7481C88.6068 38.8811 88.653 39.0112 88.6933 39.1385C88.7337 39.2657 88.7683 39.3929 88.7971 39.5201C88.8317 39.6416 88.8577 39.763 88.875 39.8845H88.9096C88.9384 39.7341 88.9845 39.5577 89.048 39.3553C89.1114 39.1471 89.1777 38.9418 89.2469 38.7394L90.1637 36.0938H91.1498L89.1518 41.4025C89.0422 41.7032 88.9067 41.9605 88.7452 42.1745C88.5838 42.3942 88.3906 42.5619 88.1657 42.6776C87.9466 42.7932 87.6871 42.8511 87.3873 42.8511C87.2431 42.8511 87.1192 42.8424 87.0154 42.825C86.9116 42.8135 86.8222 42.799 86.7472 42.7817V42.053C86.8107 42.0646 86.8856 42.0762 86.9721 42.0877C87.0644 42.0993 87.1595 42.1051 87.2575 42.1051C87.4363 42.1051 87.5891 42.0704 87.716 42.001C87.8486 41.9316 87.9582 41.8333 88.0446 41.7061C88.1369 41.5788 88.2147 41.4343 88.2782 41.2723L88.4685 40.7692L86.6002 36.0938Z" fill="#3E5A67"/>
<path d="M95.3777 36.0938V40.0406H96.061V42.4087H95.2047V40.7692H91.9871V42.4087H91.1395V40.0406H91.5114C91.7594 39.6821 91.9669 39.2888 92.1342 38.8609C92.3014 38.433 92.4282 37.9848 92.5147 37.5164C92.607 37.0422 92.6618 36.568 92.6791 36.0938H95.3777ZM93.4748 36.8051C93.4402 37.181 93.3768 37.5655 93.2845 37.9588C93.198 38.352 93.0856 38.7279 92.9472 39.0864C92.8146 39.445 92.656 39.763 92.4715 40.0406H94.4781V36.8051H93.4748Z" fill="#3E5A67"/>
<path d="M101.047 38.4272C101.047 38.8146 100.995 39.1587 100.891 39.4594C100.788 39.7601 100.641 40.0146 100.45 40.2227C100.26 40.4309 100.029 40.59 99.7583 40.6998C99.4873 40.8039 99.1817 40.856 98.8415 40.856C98.5301 40.856 98.2418 40.8039 97.9765 40.6998C97.7113 40.59 97.4806 40.4309 97.2846 40.2227C97.0943 40.0146 96.9444 39.7601 96.8348 39.4594C96.7253 39.1587 96.6705 38.8117 96.6705 38.4185C96.6705 37.9038 96.757 37.4672 96.93 37.1087C97.1087 36.7501 97.3624 36.4783 97.6911 36.2933C98.0256 36.1025 98.4176 36.007 98.8674 36.007C99.2941 36.007 99.6689 36.1025 99.9918 36.2933C100.321 36.4783 100.577 36.7501 100.762 37.1087C100.952 37.4672 101.047 37.9067 101.047 38.4272ZM97.6133 38.4272C97.6133 38.7741 97.6565 39.0749 97.743 39.3293C97.8295 39.578 97.965 39.7688 98.1495 39.9018C98.334 40.0348 98.5705 40.1013 98.8588 40.1013C99.1471 40.1013 99.3835 40.0348 99.568 39.9018C99.7525 39.7688 99.888 39.578 99.9745 39.3293C100.061 39.0749 100.104 38.7741 100.104 38.4272C100.104 38.0686 100.058 37.7679 99.9659 37.525C99.8794 37.2822 99.7439 37.0971 99.5594 36.9699C99.3806 36.8369 99.1442 36.7704 98.8501 36.7704C98.4177 36.7704 98.1034 36.9149 97.9073 37.2041C97.7113 37.4932 97.6133 37.9009 97.6133 38.4272Z" fill="#3E5A67"/>
<path d="M106.076 37.2822C106.076 37.5655 105.989 37.791 105.816 37.9588C105.649 38.1207 105.424 38.2306 105.141 38.2884V38.3231C105.441 38.3636 105.695 38.4705 105.903 38.644C106.116 38.8117 106.223 39.0604 106.223 39.39C106.223 39.5924 106.185 39.7775 106.11 39.9452C106.035 40.1129 105.92 40.2603 105.764 40.3876C105.609 40.509 105.407 40.6044 105.159 40.6738C104.917 40.7374 104.622 40.7692 104.277 40.7692H102.209V36.0938H104.277C104.617 36.0938 104.922 36.1314 105.193 36.2065C105.464 36.2817 105.678 36.4061 105.833 36.5795C105.995 36.753 106.076 36.9872 106.076 37.2822ZM105.271 39.3727C105.271 39.1298 105.179 38.9563 104.994 38.8522C104.81 38.7423 104.536 38.6874 104.173 38.6874H103.126V40.0753H104.19C104.53 40.0753 104.795 40.0232 104.986 39.9192C105.176 39.8093 105.271 39.6271 105.271 39.3727ZM105.141 37.3862C105.141 37.1838 105.069 37.0364 104.925 36.9439C104.781 36.8513 104.548 36.8051 104.225 36.8051H103.126V37.9848H104.086C104.432 37.9848 104.695 37.9385 104.873 37.846C105.052 37.7477 105.141 37.5944 105.141 37.3862Z" fill="#3E5A67"/>
<path d="M109.136 36.007C109.724 36.007 110.162 36.1371 110.45 36.3974C110.739 36.6518 110.883 37.0537 110.883 37.6031V40.7692H110.234L110.053 40.1187H110.018C109.885 40.2864 109.747 40.4251 109.603 40.535C109.464 40.6449 109.303 40.7259 109.118 40.7779C108.94 40.8299 108.721 40.856 108.461 40.856C108.184 40.856 107.933 40.8068 107.709 40.7085C107.489 40.6044 107.316 40.4483 107.19 40.2401C107.063 40.0261 106.999 39.7601 106.999 39.4421C106.999 38.9679 107.178 38.6064 107.536 38.3578C107.899 38.1091 108.45 37.9732 109.188 37.9501L109.983 37.9241V37.6638C109.983 37.3169 109.905 37.074 109.75 36.9352C109.594 36.7964 109.375 36.727 109.092 36.727C108.85 36.727 108.62 36.7617 108.4 36.8311C108.181 36.9005 107.974 36.9843 107.778 37.0827L107.484 36.4147C107.703 36.2991 107.954 36.2037 108.236 36.1285C108.524 36.0475 108.824 36.007 109.136 36.007ZM109.352 38.5399C108.821 38.5631 108.452 38.6527 108.245 38.8088C108.043 38.9592 107.942 39.1732 107.942 39.4507C107.942 39.6936 108.014 39.87 108.158 39.9799C108.308 40.0897 108.496 40.1447 108.721 40.1447C109.084 40.1447 109.384 40.0435 109.62 39.8411C109.856 39.6387 109.975 39.3351 109.975 38.9303V38.5226L109.352 38.5399Z" fill="#3E5A67"/>
<path d="M113.211 36.0938V37.9935H115.512V36.0938H116.429V40.7692H115.512V38.7308H113.211V40.7692H112.295V36.0938H113.211Z" fill="#3E5A67"/>
<path d="M118.735 38.644C118.735 38.7134 118.732 38.8031 118.726 38.9129C118.72 39.0228 118.714 39.1385 118.709 39.2599C118.703 39.3756 118.694 39.4854 118.683 39.5895C118.677 39.6878 118.671 39.7659 118.665 39.8237L121.061 36.0938H122.177V40.7692H121.312V38.2797C121.312 38.1698 121.315 38.0339 121.321 37.872C121.326 37.7101 121.332 37.554 121.338 37.4036C121.35 37.2475 121.358 37.1289 121.364 37.048L118.985 40.7692H117.861V36.0938H118.735V38.644Z" fill="#3E5A67"/>
<path d="M124.037 40.7692H122.999L124.313 38.8435C124.135 38.7857 123.965 38.7047 123.803 38.6007C123.647 38.4966 123.521 38.352 123.423 38.1669C123.325 37.9819 123.276 37.7564 123.276 37.4903C123.276 37.0393 123.434 36.6952 123.751 36.4581C124.068 36.2152 124.484 36.0938 124.997 36.0938H127.107V40.7692H126.19V38.9476H125.187L124.037 40.7692ZM124.166 37.499C124.166 37.7477 124.259 37.9356 124.443 38.0628C124.628 38.1843 124.884 38.245 125.213 38.245H126.19V36.8051H125.057C124.74 36.8051 124.512 36.8716 124.374 37.0046C124.236 37.1376 124.166 37.3024 124.166 37.499Z" fill="#3E5A67"/>
<path d="M134.469 36.0938V40.0406H135.152V42.4087H134.296V40.7692H131.078V42.4087H130.231V40.0406H130.602C130.85 39.6821 131.058 39.2888 131.225 38.8609C131.392 38.433 131.519 37.9848 131.606 37.5164C131.698 37.0422 131.753 36.568 131.77 36.0938H134.469ZM132.566 36.8051C132.531 37.181 132.468 37.5655 132.376 37.9588C132.289 38.352 132.177 38.7279 132.038 39.0864C131.906 39.445 131.747 39.763 131.563 40.0406H133.569V36.8051H132.566Z" fill="#3E5A67"/>
<path d="M139.766 40.7692H138.841V36.8311H137.526C137.468 37.5482 137.396 38.164 137.31 38.6787C137.229 39.1876 137.122 39.6011 136.99 39.9192C136.863 40.2372 136.704 40.4714 136.514 40.6218C136.329 40.7663 136.107 40.8386 135.848 40.8386C135.756 40.8386 135.666 40.83 135.58 40.8126C135.493 40.801 135.418 40.7808 135.355 40.7519V40.0493C135.395 40.0608 135.439 40.0724 135.485 40.084C135.537 40.0897 135.589 40.0926 135.64 40.0926C135.756 40.0926 135.86 40.0464 135.952 39.9538C136.05 39.8613 136.136 39.7168 136.211 39.5201C136.292 39.3235 136.364 39.0691 136.428 38.7568C136.497 38.4387 136.554 38.06 136.601 37.6205C136.652 37.181 136.699 36.6721 136.739 36.0938H139.766V40.7692Z" fill="#3E5A67"/>
<path d="M141.614 40.7692H140.576L141.891 38.8435C141.712 38.7857 141.542 38.7047 141.381 38.6007C141.225 38.4966 141.098 38.352 141 38.1669C140.902 37.9819 140.853 37.7564 140.853 37.4903C140.853 37.0393 141.012 36.6952 141.329 36.4581C141.646 36.2152 142.061 36.0938 142.574 36.0938H144.685V40.7692H143.768V38.9476H142.765L141.614 40.7692ZM141.744 37.499C141.744 37.7477 141.836 37.9356 142.021 38.0628C142.205 38.1843 142.462 38.245 142.79 38.245H143.768V36.8051H142.635C142.318 36.8051 142.09 36.8716 141.951 37.0046C141.813 37.1376 141.744 37.3024 141.744 37.499Z" fill="#3E5A67"/>
<path d="M150.178 36.007C150.766 36.007 151.204 36.1371 151.493 36.3974C151.781 36.6518 151.925 37.0537 151.925 37.6031V40.7692H151.276L151.095 40.1187H151.06C150.928 40.2864 150.789 40.4251 150.645 40.535C150.507 40.6449 150.345 40.7259 150.161 40.7779C149.982 40.8299 149.763 40.856 149.503 40.856C149.226 40.856 148.976 40.8068 148.751 40.7085C148.532 40.6044 148.359 40.4483 148.232 40.2401C148.105 40.0261 148.042 39.7601 148.042 39.4421C148.042 38.9679 148.22 38.6064 148.578 38.3578C148.941 38.1091 149.492 37.9732 150.23 37.9501L151.026 37.9241V37.6638C151.026 37.3169 150.948 37.074 150.792 36.9352C150.636 36.7964 150.417 36.727 150.135 36.727C149.892 36.727 149.662 36.7617 149.443 36.8311C149.224 36.9005 149.016 36.9843 148.82 37.0827L148.526 36.4147C148.745 36.2991 148.996 36.2037 149.278 36.1285C149.567 36.0475 149.867 36.007 150.178 36.007ZM150.394 38.5399C149.864 38.5631 149.495 38.6527 149.287 38.8088C149.085 38.9592 148.984 39.1732 148.984 39.4507C148.984 39.6936 149.056 39.87 149.201 39.9799C149.35 40.0897 149.538 40.1447 149.763 40.1447C150.126 40.1447 150.426 40.0435 150.662 39.8411C150.899 39.6387 151.017 39.3351 151.017 38.9303V38.5226L150.394 38.5399Z" fill="#3E5A67"/>
<path d="M157.203 37.2822C157.203 37.5655 157.117 37.791 156.944 37.9588C156.776 38.1207 156.551 38.2306 156.269 38.2884V38.3231C156.569 38.3636 156.823 38.4705 157.03 38.644C157.243 38.8117 157.35 39.0604 157.35 39.39C157.35 39.5924 157.313 39.7775 157.238 39.9452C157.163 40.1129 157.047 40.2603 156.892 40.3876C156.736 40.509 156.534 40.6044 156.286 40.6738C156.044 40.7374 155.75 40.7692 155.404 40.7692H153.337V36.0938H155.404C155.744 36.0938 156.05 36.1314 156.321 36.2065C156.592 36.2817 156.805 36.4061 156.961 36.5795C157.122 36.753 157.203 36.9872 157.203 37.2822ZM156.399 39.3727C156.399 39.1298 156.306 38.9563 156.122 38.8522C155.937 38.7423 155.663 38.6874 155.3 38.6874H154.254V40.0753H155.318C155.658 40.0753 155.923 40.0232 156.113 39.9192C156.304 39.8093 156.399 39.6271 156.399 39.3727ZM156.269 37.3862C156.269 37.1838 156.197 37.0364 156.053 36.9439C155.909 36.8513 155.675 36.8051 155.352 36.8051H154.254V37.9848H155.214C155.56 37.9848 155.822 37.9385 156.001 37.846C156.18 37.7477 156.269 37.5944 156.269 37.3862Z" fill="#3E5A67"/>
<path d="M161.863 36.8311H160.341V40.7692H159.433V36.8311H157.919V36.0938H161.863V36.8311Z" fill="#3E5A67"/>
<path d="M166.796 38.4272C166.796 38.8146 166.744 39.1587 166.64 39.4594C166.536 39.7601 166.389 40.0146 166.199 40.2227C166.009 40.4309 165.778 40.59 165.507 40.6998C165.236 40.8039 164.93 40.856 164.59 40.856C164.279 40.856 163.99 40.8039 163.725 40.6998C163.46 40.59 163.229 40.4309 163.033 40.2227C162.843 40.0146 162.693 39.7601 162.583 39.4594C162.474 39.1587 162.419 38.8117 162.419 38.4185C162.419 37.9038 162.506 37.4672 162.679 37.1087C162.857 36.7501 163.111 36.4783 163.44 36.2933C163.774 36.1025 164.166 36.007 164.616 36.007C165.043 36.007 165.418 36.1025 165.74 36.2933C166.069 36.4783 166.326 36.7501 166.51 37.1087C166.701 37.4672 166.796 37.9067 166.796 38.4272ZM163.362 38.4272C163.362 38.7741 163.405 39.0749 163.492 39.3293C163.578 39.578 163.714 39.7688 163.898 39.9018C164.083 40.0348 164.319 40.1013 164.607 40.1013C164.896 40.1013 165.132 40.0348 165.317 39.9018C165.501 39.7688 165.637 39.578 165.723 39.3293C165.81 39.0749 165.853 38.7741 165.853 38.4272C165.853 38.0686 165.807 37.7679 165.715 37.525C165.628 37.2822 165.493 37.0971 165.308 36.9699C165.129 36.8369 164.893 36.7704 164.599 36.7704C164.166 36.7704 163.852 36.9149 163.656 37.2041C163.46 37.4932 163.362 37.9009 163.362 38.4272Z" fill="#3E5A67"/>
<path d="M169.835 40.856C169.408 40.856 169.033 40.7721 168.71 40.6044C168.388 40.4367 168.137 40.1765 167.958 39.8237C167.779 39.4652 167.69 39.0112 167.69 38.4619C167.69 37.8836 167.785 37.4152 167.975 37.0566C168.171 36.6981 168.434 36.435 168.762 36.2673C169.097 36.0938 169.477 36.007 169.904 36.007C170.164 36.007 170.406 36.036 170.631 36.0938C170.861 36.1458 171.052 36.2065 171.201 36.2759L170.925 37.0219C170.763 36.9583 170.59 36.9034 170.406 36.8571C170.227 36.8109 170.057 36.7877 169.895 36.7877C169.607 36.7877 169.368 36.8513 169.178 36.9786C168.993 37.1 168.855 37.2851 168.762 37.5337C168.676 37.7766 168.633 38.0831 168.633 38.4532C168.633 38.8059 168.679 39.1038 168.771 39.3466C168.863 39.5895 168.999 39.7746 169.178 39.9018C169.362 40.0232 169.59 40.084 169.861 40.084C170.12 40.084 170.348 40.055 170.544 39.9972C170.74 39.9394 170.925 39.8642 171.098 39.7717V40.5697C170.93 40.668 170.749 40.7403 170.553 40.7866C170.357 40.8328 170.117 40.856 169.835 40.856Z" fill="#3E5A67"/>
<path d="M174.032 36.007C174.441 36.007 174.793 36.0938 175.087 36.2673C175.381 36.435 175.606 36.6779 175.762 36.9959C175.923 37.314 176.004 37.6899 176.004 38.1236V38.6267H172.873C172.884 39.1067 173.008 39.4739 173.245 39.7283C173.487 39.9828 173.824 40.11 174.257 40.11C174.557 40.11 174.822 40.084 175.052 40.0319C175.289 39.9741 175.531 39.8902 175.779 39.7804V40.5437C175.548 40.6478 175.312 40.7259 175.07 40.7779C174.833 40.8299 174.551 40.856 174.222 40.856C173.772 40.856 173.374 40.7663 173.028 40.5871C172.683 40.4078 172.412 40.1418 172.215 39.789C172.025 39.4305 171.93 38.991 171.93 38.4705C171.93 37.9443 172.017 37.499 172.19 37.1347C172.368 36.7704 172.613 36.4928 172.925 36.302C173.242 36.1053 173.611 36.007 174.032 36.007ZM174.032 36.7183C173.703 36.7183 173.438 36.8253 173.236 37.0393C173.04 37.2532 172.925 37.5568 172.89 37.9501H175.087C175.087 37.7072 175.05 37.4932 174.975 37.3082C174.9 37.1231 174.784 36.9786 174.629 36.8745C174.473 36.7704 174.274 36.7183 174.032 36.7183Z" fill="#3E5A67"/>
<path d="M179.475 36.007C180.034 36.007 180.484 36.2094 180.824 36.6142C181.17 37.019 181.343 37.6233 181.343 38.4272C181.343 38.9534 181.265 39.3987 181.109 39.763C180.954 40.1273 180.734 40.402 180.452 40.5871C180.169 40.7663 179.841 40.856 179.466 40.856C179.229 40.856 179.022 40.8271 178.843 40.7692C178.664 40.7056 178.512 40.6247 178.385 40.5264C178.264 40.4223 178.157 40.3124 178.065 40.1967H178.004C178.021 40.3008 178.036 40.4252 178.047 40.5697C178.059 40.7085 178.065 40.8328 178.065 40.9427V42.8511H177.148V36.0938H177.892L178.021 36.7183H178.065C178.157 36.5911 178.267 36.4726 178.393 36.3627C178.52 36.2528 178.673 36.1661 178.852 36.1025C179.031 36.0388 179.238 36.007 179.475 36.007ZM179.258 36.7617C178.97 36.7617 178.739 36.8195 178.566 36.9352C178.393 37.0451 178.267 37.2128 178.186 37.4383C178.111 37.658 178.07 37.9385 178.065 38.2797V38.4185C178.065 38.777 178.102 39.0835 178.177 39.338C178.252 39.5866 178.376 39.7775 178.549 39.9105C178.728 40.0377 178.97 40.1013 179.276 40.1013C179.535 40.1013 179.746 40.0319 179.907 39.8931C180.074 39.7486 180.198 39.549 180.279 39.2946C180.36 39.0402 180.4 38.7452 180.4 38.4098C180.4 37.9009 180.308 37.499 180.123 37.2041C179.939 36.9092 179.65 36.7617 179.258 36.7617Z" fill="#3E5A67"/>
<path d="M186.378 37.2822C186.378 37.5655 186.291 37.791 186.118 37.9588C185.951 38.1207 185.726 38.2306 185.444 38.2884V38.3231C185.743 38.3636 185.997 38.4705 186.205 38.644C186.418 38.8117 186.525 39.0604 186.525 39.39C186.525 39.5924 186.487 39.7775 186.412 39.9452C186.337 40.1129 186.222 40.2603 186.066 40.3876C185.911 40.509 185.709 40.6044 185.461 40.6738C185.219 40.7374 184.925 40.7692 184.579 40.7692H182.512V36.0938H184.579C184.919 36.0938 185.225 36.1314 185.496 36.2065C185.767 36.2817 185.98 36.4061 186.136 36.5795C186.297 36.753 186.378 36.9872 186.378 37.2822ZM185.573 39.3727C185.573 39.1298 185.481 38.9563 185.297 38.8522C185.112 38.7423 184.838 38.6874 184.475 38.6874H183.428V40.0753H184.492C184.832 40.0753 185.098 40.0232 185.288 39.9192C185.478 39.8093 185.573 39.6271 185.573 39.3727ZM185.444 37.3862C185.444 37.1838 185.372 37.0364 185.227 36.9439C185.083 36.8513 184.85 36.8051 184.527 36.8051H183.428V37.9848H184.388C184.734 37.9848 184.997 37.9385 185.176 37.846C185.354 37.7477 185.444 37.5944 185.444 37.3862Z" fill="#3E5A67"/>
<path d="M188.504 38.644C188.504 38.7134 188.501 38.8031 188.495 38.9129C188.489 39.0228 188.484 39.1385 188.478 39.2599C188.472 39.3756 188.463 39.4854 188.452 39.5895C188.446 39.6878 188.44 39.7659 188.435 39.8237L190.83 36.0938H191.946V40.7692H191.081V38.2797C191.081 38.1698 191.084 38.0339 191.09 37.872C191.096 37.7101 191.101 37.554 191.107 37.4036C191.119 37.2475 191.127 37.1289 191.133 37.048L188.755 40.7692H187.63V36.0938H188.504V38.644Z" fill="#3E5A67"/>
<path d="M195.268 40.856C194.841 40.856 194.466 40.7721 194.143 40.6044C193.82 40.4367 193.57 40.1765 193.391 39.8237C193.212 39.4652 193.123 39.0112 193.123 38.4619C193.123 37.8836 193.218 37.4152 193.408 37.0566C193.604 36.6981 193.866 36.435 194.195 36.2673C194.53 36.0938 194.91 36.007 195.337 36.007C195.596 36.007 195.839 36.036 196.063 36.0938C196.294 36.1458 196.484 36.2065 196.634 36.2759L196.357 37.0219C196.196 36.9583 196.023 36.9034 195.839 36.8571C195.66 36.8109 195.49 36.7877 195.328 36.7877C195.04 36.7877 194.801 36.8513 194.61 36.9786C194.426 37.1 194.287 37.2851 194.195 37.5337C194.109 37.7766 194.065 38.0831 194.065 38.4532C194.065 38.8059 194.112 39.1038 194.204 39.3466C194.296 39.5895 194.432 39.7746 194.61 39.9018C194.795 40.0232 195.023 40.084 195.294 40.084C195.553 40.084 195.781 40.055 195.977 39.9972C196.173 39.9394 196.357 39.8642 196.53 39.7717V40.5697C196.363 40.668 196.182 40.7403 195.986 40.7866C195.79 40.8328 195.55 40.856 195.268 40.856Z" fill="#3E5A67"/>
<path d="M201.739 38.4272C201.739 38.8146 201.688 39.1587 201.584 39.4594C201.48 39.7601 201.333 40.0146 201.143 40.2227C200.952 40.4309 200.722 40.59 200.451 40.6998C200.18 40.8039 199.874 40.856 199.534 40.856C199.222 40.856 198.934 40.8039 198.669 40.6998C198.404 40.59 198.173 40.4309 197.977 40.2227C197.787 40.0146 197.637 39.7601 197.527 39.4594C197.418 39.1587 197.363 38.8117 197.363 38.4185C197.363 37.9038 197.449 37.4672 197.622 37.1087C197.801 36.7501 198.055 36.4783 198.383 36.2933C198.718 36.1025 199.11 36.007 199.56 36.007C199.986 36.007 200.361 36.1025 200.684 36.2933C201.013 36.4783 201.269 36.7501 201.454 37.1087C201.644 37.4672 201.739 37.9067 201.739 38.4272ZM198.306 38.4272C198.306 38.7741 198.349 39.0749 198.435 39.3293C198.522 39.578 198.657 39.7688 198.842 39.9018C199.026 40.0348 199.263 40.1013 199.551 40.1013C199.839 40.1013 200.076 40.0348 200.26 39.9018C200.445 39.7688 200.58 39.578 200.667 39.3293C200.753 39.0749 200.797 38.7741 200.797 38.4272C200.797 38.0686 200.751 37.7679 200.658 37.525C200.572 37.2822 200.436 37.0971 200.252 36.9699C200.073 36.8369 199.837 36.7704 199.542 36.7704C199.11 36.7704 198.796 36.9149 198.6 37.2041C198.404 37.4932 198.306 37.9009 198.306 38.4272Z" fill="#3E5A67"/>
<path d="M206.768 37.2822C206.768 37.5655 206.681 37.791 206.508 37.9588C206.341 38.1207 206.116 38.2306 205.834 38.2884V38.3231C206.134 38.3636 206.387 38.4705 206.595 38.644C206.808 38.8117 206.915 39.0604 206.915 39.39C206.915 39.5924 206.878 39.7775 206.803 39.9452C206.728 40.1129 206.612 40.2603 206.457 40.3876C206.301 40.509 206.099 40.6044 205.851 40.6738C205.609 40.7374 205.315 40.7692 204.969 40.7692H202.902V36.0938H204.969C205.309 36.0938 205.615 36.1314 205.886 36.2065C206.157 36.2817 206.37 36.4061 206.526 36.5795C206.687 36.753 206.768 36.9872 206.768 37.2822ZM205.964 39.3727C205.964 39.1298 205.871 38.9563 205.687 38.8522C205.502 38.7423 205.228 38.6874 204.865 38.6874H203.819V40.0753H204.882C205.223 40.0753 205.488 40.0232 205.678 39.9192C205.868 39.8093 205.964 39.6271 205.964 39.3727ZM205.834 37.3862C205.834 37.1838 205.762 37.0364 205.618 36.9439C205.473 36.8513 205.24 36.8051 204.917 36.8051H203.819V37.9848H204.779C205.125 37.9848 205.387 37.9385 205.566 37.846C205.744 37.7477 205.834 37.5944 205.834 37.3862Z" fill="#3E5A67"/>
<path d="M65.5967 50.7881C65.5967 50.8574 65.5938 50.9471 65.5881 51.057C65.5823 51.1668 65.5765 51.2825 65.5708 51.4039C65.565 51.5196 65.5564 51.6295 65.5448 51.7336C65.5391 51.8319 65.5333 51.9099 65.5275 51.9678L67.9234 48.2378H69.0392V52.9133H68.1742V50.4237C68.1742 50.3139 68.1771 50.178 68.1829 50.016C68.1887 49.8541 68.1944 49.698 68.2002 49.5476C68.2117 49.3915 68.2204 49.2729 68.2261 49.192L65.8475 52.9133H64.7231V48.2378H65.5967V50.7881Z" fill="#3E5A67"/>
<path d="M79.2349 48.2378V52.9133H72.7306V48.2378H73.6474V52.1759H75.5243V48.2378H76.4411V52.1759H78.318V48.2378H79.2349Z" fill="#3E5A67"/>
<path d="M81.5524 50.7881C81.5524 50.8574 81.5495 50.9471 81.5438 51.057C81.538 51.1668 81.5322 51.2825 81.5265 51.4039C81.5207 51.5196 81.5121 51.6295 81.5005 51.7336C81.4948 51.8319 81.489 51.9099 81.4832 51.9678L83.8791 48.2378H84.9949V52.9133H84.1299V50.4237C84.1299 50.3139 84.1328 50.178 84.1386 50.016C84.1443 49.8541 84.1501 49.698 84.1559 49.5476C84.1674 49.3915 84.1761 49.2729 84.1818 49.192L81.8033 52.9133H80.6788V48.2378H81.5524V50.7881Z" fill="#3E5A67"/>
<path d="M87.3563 48.2378V50.1375H89.657V48.2378H90.5738V52.9133H89.657V50.8748H87.3563V52.9133H86.4394V48.2378H87.3563Z" fill="#3E5A67"/>
<path d="M96.1142 50.5712C96.1142 50.9586 96.0623 51.3027 95.9585 51.6034C95.8547 51.9041 95.7077 52.1586 95.5174 52.3668C95.3271 52.575 95.0965 52.734 94.8255 52.8439C94.5545 52.948 94.2488 53 93.9086 53C93.5973 53 93.3089 52.948 93.0437 52.8439C92.7785 52.734 92.5478 52.575 92.3518 52.3668C92.1615 52.1586 92.0115 51.9041 91.902 51.6034C91.7924 51.3027 91.7376 50.9558 91.7376 50.5625C91.7376 50.0478 91.8241 49.6112 91.9971 49.2527C92.1759 48.8942 92.4296 48.6224 92.7583 48.4373C93.0927 48.2465 93.4848 48.1511 93.9346 48.1511C94.3613 48.1511 94.7361 48.2465 95.059 48.4373C95.3877 48.6224 95.6443 48.8942 95.8288 49.2527C96.0191 49.6112 96.1142 50.0507 96.1142 50.5712ZM92.6804 50.5712C92.6804 50.9182 92.7237 51.2189 92.8102 51.4733C92.8967 51.722 93.0322 51.9128 93.2167 52.0458C93.4012 52.1788 93.6376 52.2453 93.9259 52.2453C94.2142 52.2453 94.4507 52.1788 94.6352 52.0458C94.8197 51.9128 94.9552 51.722 95.0417 51.4733C95.1282 51.2189 95.1714 50.9182 95.1714 50.5712C95.1714 50.2127 95.1253 49.9119 95.0331 49.6691C94.9466 49.4262 94.8111 49.2411 94.6265 49.1139C94.4478 48.9809 94.2114 48.9144 93.9173 48.9144C93.4848 48.9144 93.1706 49.059 92.9745 49.3481C92.7785 49.6373 92.6804 50.045 92.6804 50.5712Z" fill="#3E5A67"/>
<path d="M102.535 48.2378V52.9133H101.705V50.1375C101.705 49.9813 101.708 49.8252 101.714 49.6691C101.725 49.5071 101.737 49.3539 101.748 49.2093H101.722L100.269 52.9133H99.534L98.1068 49.2093H98.0722C98.0895 49.3539 98.1011 49.5071 98.1068 49.6691C98.1126 49.8252 98.1155 49.99 98.1155 50.1635V52.9133H97.2765V48.2378H98.5306L99.9059 51.8203L101.307 48.2378H102.535Z" fill="#3E5A67"/>
<path d="M108.092 50.5712C108.092 50.9586 108.04 51.3027 107.936 51.6034C107.832 51.9041 107.685 52.1586 107.495 52.3668C107.304 52.575 107.074 52.734 106.803 52.8439C106.532 52.948 106.226 53 105.886 53C105.575 53 105.286 52.948 105.021 52.8439C104.756 52.734 104.525 52.575 104.329 52.3668C104.139 52.1586 103.989 51.9041 103.879 51.6034C103.77 51.3027 103.715 50.9558 103.715 50.5625C103.715 50.0478 103.801 49.6112 103.974 49.2527C104.153 48.8942 104.407 48.6224 104.736 48.4373C105.07 48.2465 105.462 48.1511 105.912 48.1511C106.339 48.1511 106.713 48.2465 107.036 48.4373C107.365 48.6224 107.622 48.8942 107.806 49.2527C107.996 49.6112 108.092 50.0507 108.092 50.5712ZM104.658 50.5712C104.658 50.9182 104.701 51.2189 104.787 51.4733C104.874 51.722 105.01 51.9128 105.194 52.0458C105.379 52.1788 105.615 52.2453 105.903 52.2453C106.192 52.2453 106.428 52.1788 106.613 52.0458C106.797 51.9128 106.933 51.722 107.019 51.4733C107.106 51.2189 107.149 50.9182 107.149 50.5712C107.149 50.2127 107.103 49.9119 107.01 49.6691C106.924 49.4262 106.788 49.2411 106.604 49.1139C106.425 48.9809 106.189 48.9144 105.895 48.9144C105.462 48.9144 105.148 49.059 104.952 49.3481C104.756 49.6373 104.658 50.045 104.658 50.5712Z" fill="#3E5A67"/>
<path d="M110.171 48.2378V50.1375H112.471V48.2378H113.388V52.9133H112.471V50.8748H110.171V52.9133H109.254V48.2378H110.171Z" fill="#3E5A67"/>
<path d="M118.228 48.9751H116.706V52.9133H115.798V48.9751H114.284V48.2378H118.228V48.9751Z" fill="#3E5A67"/>
<path d="M120.944 48.1511C121.532 48.1511 121.97 48.2812 122.259 48.5414C122.547 48.7959 122.691 49.1978 122.691 49.7471V52.9133H122.043L121.861 52.2627H121.826C121.694 52.4304 121.555 52.5692 121.411 52.6791C121.273 52.7889 121.111 52.8699 120.927 52.9219C120.748 52.974 120.529 53 120.269 53C119.993 53 119.742 52.9508 119.517 52.8525C119.298 52.7484 119.125 52.5923 118.998 52.3841C118.871 52.1702 118.808 51.9041 118.808 51.5861C118.808 51.1119 118.986 50.7505 119.344 50.5018C119.707 50.2531 120.258 50.1172 120.996 50.0941L121.792 50.0681V49.8079C121.792 49.4609 121.714 49.218 121.558 49.0792C121.403 48.9404 121.183 48.871 120.901 48.871C120.659 48.871 120.428 48.9057 120.209 48.9751C119.99 49.0445 119.782 49.1284 119.586 49.2267L119.292 48.5588C119.511 48.4431 119.762 48.3477 120.045 48.2725C120.333 48.1915 120.633 48.1511 120.944 48.1511ZM121.16 50.684C120.63 50.7071 120.261 50.7967 120.053 50.9529C119.851 51.1032 119.75 51.3172 119.75 51.5948C119.75 51.8376 119.823 52.014 119.967 52.1239C120.117 52.2338 120.304 52.2887 120.529 52.2887C120.892 52.2887 121.192 52.1875 121.428 51.9851C121.665 51.7827 121.783 51.4791 121.783 51.0743V50.6666L121.16 50.684Z" fill="#3E5A67"/>
<path d="M130.002 48.2378L128.142 50.5018L130.166 52.9133H129.154L127.208 50.5452V52.9133H126.352V50.5452L124.406 52.9133H123.394L125.418 50.5018L123.558 48.2378H124.535L126.352 50.5105V48.2378H127.208V50.5105L129.033 48.2378H130.002Z" fill="#3E5A67"/>
<path d="M132.71 48.1511C133.298 48.1511 133.737 48.2812 134.025 48.5414C134.313 48.7959 134.457 49.1978 134.457 49.7471V52.9133H133.809L133.627 52.2627H133.592C133.46 52.4304 133.321 52.5692 133.177 52.6791C133.039 52.7889 132.877 52.8699 132.693 52.9219C132.514 52.974 132.295 53 132.036 53C131.759 53 131.508 52.9508 131.283 52.8525C131.064 52.7484 130.891 52.5923 130.764 52.3841C130.637 52.1702 130.574 51.9041 130.574 51.5861C130.574 51.1119 130.753 50.7505 131.11 50.5018C131.473 50.2531 132.024 50.1172 132.762 50.0941L133.558 50.0681V49.8079C133.558 49.4609 133.48 49.218 133.324 49.0792C133.169 48.9404 132.95 48.871 132.667 48.871C132.425 48.871 132.194 48.9057 131.975 48.9751C131.756 49.0445 131.548 49.1284 131.352 49.2267L131.058 48.5588C131.277 48.4431 131.528 48.3477 131.811 48.2725C132.099 48.1915 132.399 48.1511 132.71 48.1511ZM132.926 50.684C132.396 50.7071 132.027 50.7967 131.819 50.9529C131.618 51.1032 131.517 51.3172 131.517 51.5948C131.517 51.8376 131.589 52.014 131.733 52.1239C131.883 52.2338 132.07 52.2887 132.295 52.2887C132.658 52.2887 132.958 52.1875 133.195 51.9851C133.431 51.7827 133.549 51.4791 133.549 51.0743V50.6666L132.926 50.684Z" fill="#3E5A67"/>
<path fill-rule="evenodd" clip-rule="evenodd" d="M0 29.397C3.23703 29.397 5.86144 26.7608 5.86144 23.5089L5.86157 0.0129117H0V29.397Z" fill="#3E5A67"/>
<path fill-rule="evenodd" clip-rule="evenodd" d="M52.7554 29.3902C49.5184 29.3902 46.8941 26.754 46.894 23.502L46.8938 0.00568484H52.7554V29.3902Z" fill="#3E5A67"/>
<path fill-rule="evenodd" clip-rule="evenodd" d="M52.7541 47.0204V52.8974C36.5677 52.8974 23.4461 39.7416 23.4461 23.5133H29.3077C29.3077 36.4959 39.805 47.0204 52.7541 47.0204Z" fill="#3E5A67"/>
<path fill-rule="evenodd" clip-rule="evenodd" d="M23.4461 23.5133H29.3077L29.3078 0.00568484H23.4463L23.4461 23.5133ZM0 47.0205V52.8974C16.1864 52.8974 29.3077 39.7416 29.3077 23.5133H23.4461C23.4461 36.4959 12.9491 47.0205 0 47.0205Z" fill="#3E5A67"/>
<path fill-rule="evenodd" clip-rule="evenodd" d="M41.0379 23.5073H35.1763V0H41.0379V23.5073ZM52.761 35.2609V41.1377C43.0492 41.1377 35.1763 33.2443 35.1763 23.5073H41.0379C41.0379 29.9985 46.2863 35.2609 52.761 35.2609Z" fill="#3E5A67"/>
<path fill-rule="evenodd" clip-rule="evenodd" d="M11.7301 23.5073H17.5917V0H11.7301V23.5073ZM0.00695528 35.2609V41.1377C9.7188 41.1377 17.5917 33.2443 17.5917 23.5073H11.7301C11.7301 29.9985 6.48152 35.2609 0.00695528 35.2609Z" fill="#3E5A67"/>
<path d="M208.998 0L201.206 11.4537L209 24.2812H200.388L196.656 18.1403L192.479 24.2793L185.631 24.2881L193.429 12.8283L185.634 0.00198709H194.247L197.978 6.14192L202.156 0.000584859L208.998 0Z" fill="#3E5A67"/>
<path d="M184.319 18.4933V24.2811H166.166V0.00189936H184.319V5.60745H173.435V9.1383H182.222V14.5257H173.435V18.4933H184.319Z" fill="#3E5A67"/>
<path d="M158.104 5.82597V24.2811H151.088V5.82597H145.129V0.00189936H164.063V5.82597H158.104Z" fill="#3E5A67"/>
<path d="M143.026 0.00189936V24.2811H135.613V14.8533H130.008V24.2811H122.595V0.00189936H130.008V8.95636H135.613V0.00189936H143.026Z" fill="#3E5A67"/>
<path d="M105.952 21.7207V24.2811H98.7558V0.00189936H105.952L105.941 13.9621L112.172 2.59848V0.00189936H119.368V24.2811H112.172L112.166 10.3891L105.952 21.7207Z" fill="#3E5A67"/>
<path d="M63.7012 24.2811V0.00189936H70.8973V18.5661H76.0322V0.00189936H83.2287V18.5661H88.3638V0.00189936H95.5596V24.2811H63.7012Z" fill="#3E5A67"/>
</svg>
