<svg width="169" height="28" viewBox="0 0 169 28" fill="none" xmlns="http://www.w3.org/2000/svg">
<path d="M168.634 0L159.625 13.2042L168.636 27.9921H158.679L154.365 20.9127L149.535 27.9899L141.618 28L150.633 14.7888L141.622 0.00229078H151.58L155.893 7.0806L160.724 0.000674243L168.634 0Z" fill="#333333"/>
<path d="M140.102 21.3197V27.992H119.114V0.00219727H140.102V6.46444H127.517V10.5349H137.677V16.7456H127.517V21.3197H140.102Z" fill="#333333"/>
<path d="M109.792 6.71636V27.992H101.681V6.71636H94.7917V0.00219727H116.682V6.71636H109.792Z" fill="#333333"/>
<path d="M92.3601 0.00219727V27.992H83.7893V17.1234H77.3091V27.992H68.7383V0.00219727H77.3091V10.3252H83.7893V0.00219727H92.3601Z" fill="#333333"/>
<path d="M49.497 25.0403V27.992H41.177V0.00219727H49.497L49.4842 16.0959L56.6879 2.99561V0.00219727H65.0078V27.992H56.6879L56.6812 11.9769L49.497 25.0403Z" fill="#333333"/>
<path d="M0.648438 27.992V0.00219727H8.9683V21.4036H14.905V0.00219727H23.2253V21.4036H29.1623V0.00219727H37.4817V27.992H0.648438Z" fill="#333333"/>
</svg>
