<svg width="24" height="12" viewBox="0 0 24 12" fill="none" xmlns="http://www.w3.org/2000/svg">
<path d="M5.95832 0.70829C6.13413 0.782379 6.22238 0.916887 6.22238 1.11133V4.22247L23.5556 4.22247C23.6853 4.22247 23.7918 4.26421 23.8751 4.34744C23.9584 4.43038 24 4.53696 24 4.6668V7.33351C24 7.46325 23.9584 7.56964 23.8751 7.65297C23.7918 7.7362 23.6853 7.77799 23.5556 7.77799L6.22218 7.77799V10.8891C6.22218 11.0742 6.13413 11.2085 5.95813 11.2919C5.78237 11.3659 5.62038 11.3426 5.47186 11.2223L0.138643 6.29179C0.0461178 6.19922 -4.76837e-05 6.08811 -4.76837e-05 5.95837C-4.76837e-05 5.83782 0.0460701 5.73143 0.138643 5.63891L5.47186 0.777805C5.62038 0.657406 5.78237 0.634056 5.95832 0.70829Z" fill="#1FB1F9"/>
</svg>
