<svg width="24" height="12" viewBox="0 0 24 12" fill="none" xmlns="http://www.w3.org/2000/svg">
<path d="M18.0417 0.708321C17.8659 0.78241 17.7776 0.916918 17.7776 1.11136V4.2225L0.444386 4.2225C0.314694 4.2225 0.208158 4.26424 0.124924 4.34747C0.0415928 4.43041 0 4.537 0 4.66683L0 7.33354C0 7.46328 0.0415928 7.56967 0.124924 7.653C0.208158 7.73623 0.314694 7.77802 0.444386 7.77802L17.7778 7.77802V10.8891C17.7778 11.0743 17.8659 11.2086 18.0419 11.2919C18.2176 11.3659 18.3796 11.3426 18.5281 11.2223L23.8614 6.29182C23.9539 6.19925 24 6.08814 24 5.9584C24 5.83785 23.9539 5.73146 23.8614 5.63894L18.5281 0.777836C18.3796 0.657436 18.2176 0.634087 18.0417 0.708321Z" fill="white"/>
</svg>
