<svg width="22" height="22" viewBox="0 0 22 22" fill="none" xmlns="http://www.w3.org/2000/svg">
<g clip-path="url(#clip0_467_127)">
<path d="M16.9229 18.6155C16.9229 19.0829 17.0886 19.4816 17.4189 19.8118C17.7492 20.1424 18.1482 20.3078 18.6157 20.3078C19.0826 20.3078 19.4816 20.1424 19.8119 19.8118C20.1424 19.4816 20.3079 19.0829 20.3079 18.6155C20.3079 18.1482 20.1426 17.7495 19.8119 17.4189C19.4816 17.0886 19.0826 16.9232 18.6157 16.9232C18.1482 16.9232 17.7492 17.0886 17.4189 17.4189C17.0886 17.7495 16.9229 18.1482 16.9229 18.6155Z" fill="white"/>
<path d="M21.7487 3.63562C21.5811 3.46812 21.383 3.38435 21.1537 3.38435H5.27526C5.26632 3.32272 5.2465 3.21042 5.21566 3.04737C5.18482 2.88423 5.16065 2.75429 5.143 2.65723C5.12527 2.56059 5.09239 2.44371 5.04381 2.3071C4.99533 2.1704 4.93805 2.06232 4.87197 1.98318C4.80598 1.90362 4.71785 1.83551 4.60764 1.77804C4.49752 1.72094 4.37185 1.69223 4.23089 1.69223H0.846316C0.617001 1.69223 0.418712 1.77614 0.251265 1.9434C0.0837703 2.11085 0 2.30928 0 2.53841C0 2.76754 0.0837703 2.96587 0.251265 3.13332C0.418851 3.30081 0.617186 3.38449 0.846316 3.38449H3.54313L5.88314 14.2656C5.86563 14.3008 5.77529 14.4681 5.61215 14.768C5.4491 15.0678 5.31911 15.3299 5.22224 15.5547C5.12531 15.7797 5.07683 15.9536 5.07683 16.077C5.07683 16.3061 5.1606 16.5045 5.328 16.6722C5.49568 16.8392 5.69392 16.9232 5.9231 16.9232H6.76923H18.6154H19.461C19.6901 16.9232 19.8885 16.8392 20.0559 16.6722C20.2236 16.5045 20.3072 16.3061 20.3072 16.077C20.3072 15.8478 20.2236 15.6494 20.0559 15.482C19.8886 15.3147 19.6902 15.2307 19.461 15.2307H7.29788C7.5095 14.8075 7.61527 14.5258 7.61527 14.3847C7.61527 14.2963 7.60425 14.1993 7.58216 14.0938C7.56007 13.9883 7.53368 13.8713 7.50283 13.7433C7.47195 13.6159 7.45222 13.5211 7.44342 13.4593L21.2466 11.8464C21.4667 11.8197 21.6476 11.7253 21.7886 11.562C21.9296 11.3991 22 11.2118 22 11.0002V4.23081C21.9999 4.00168 21.9163 3.80334 21.7487 3.63562Z" fill="white"/>
<path d="M5.07678 18.6155C5.07678 19.0829 5.24196 19.4816 5.57255 19.8118C5.90323 20.1424 6.30189 20.3078 6.76918 20.3078C7.23619 20.3078 7.63509 20.1424 7.96554 19.8118C8.29613 19.4816 8.46149 19.0829 8.46149 18.6155C8.46149 18.1482 8.29627 17.7495 7.96554 17.4189C7.63504 17.0886 7.23619 16.9232 6.76918 16.9232C6.30194 16.9232 5.90305 17.0886 5.57255 17.4189C5.24215 17.7495 5.07678 18.1482 5.07678 18.6155Z" fill="white"/>
</g>
<defs>
<clipPath id="clip0_467_127">
<rect width="22" height="22" fill="white"/>
</clipPath>
</defs>
</svg>
