<svg width="24" height="24" viewBox="0 0 24 24" fill="none" xmlns="http://www.w3.org/2000/svg">
<path d="M12 1.5C7.14749 1.5 3.20999 5.4375 3.20999 10.29C3.20999 19.4325 11.6475 22.4175 11.73 22.455C11.82 22.485 11.9025 22.5 12 22.5C12.09 22.5 12.18 22.485 12.2625 22.455C12.3525 22.425 20.79 19.44 20.79 10.29C20.79 5.4375 16.845 1.5 12 1.5ZM12 14.9025C9.42749 14.9025 7.34249 12.81 7.34249 10.2525C7.34249 7.68 9.43499 5.595 12 5.595C14.565 5.595 16.65 7.6875 16.65 10.2525C16.65 12.81 14.565 14.9025 12 14.9025Z" fill="#008DD2"/>
</svg>
