<svg width="16" height="16" viewBox="0 0 16 16" fill="none" xmlns="http://www.w3.org/2000/svg">
<path d="M8.00001 8.00009C9.10447 8.00009 10.0471 7.60933 10.8283 6.82814C11.6095 6.04694 12.0002 5.10426 12.0002 3.99995C12.0002 2.89583 11.6095 1.95311 10.8283 1.17174C10.0469 0.390579 9.10418 0 8.00001 0C6.89585 0 5.95299 0.390579 5.17183 1.17174C4.39053 1.95311 3.99988 2.89579 3.99988 3.99995C3.99988 5.10426 4.39053 6.04694 5.17183 6.82814C5.95321 7.60933 6.89581 8.00009 8.00001 8.00009Z" fill="#008DD2"/>
<path d="M15.2969 12.224C15.2725 11.8734 15.2238 11.4948 15.151 11.0885C15.0781 10.6822 14.986 10.3057 14.8748 9.95827C14.7637 9.61115 14.6144 9.27256 14.4269 8.94266C14.2394 8.61279 14.0242 8.3316 13.781 8.09885C13.5378 7.86619 13.2409 7.68055 12.8905 7.54168C12.5396 7.40285 12.1524 7.33331 11.7288 7.33331C11.6664 7.33331 11.5205 7.40796 11.2913 7.5573C11.0623 7.70663 10.8036 7.87334 10.5154 8.05744C10.2272 8.24122 9.85201 8.40803 9.3904 8.55711C8.92856 8.70645 8.46509 8.78113 7.99964 8.78113C7.53437 8.78113 7.07086 8.70645 6.6091 8.55711C6.14737 8.40803 5.77226 8.24122 5.48406 8.05744C5.1959 7.87334 4.93725 7.70667 4.70813 7.5573C4.47889 7.40796 4.33313 7.33331 4.27063 7.33331C3.84703 7.33331 3.45984 7.40285 3.10918 7.54168C2.75844 7.68055 2.4616 7.86633 2.21849 8.09885C1.97546 8.3316 1.76016 8.61279 1.57273 8.94266C1.38531 9.27256 1.23601 9.61129 1.12487 9.95827C1.01377 10.3057 0.921721 10.6822 0.848823 11.0885C0.775851 11.4948 0.727252 11.8731 0.702917 12.224C0.678617 12.5748 0.666504 12.9342 0.666504 13.3023C0.666504 14.1355 0.920043 14.7936 1.42694 15.2763C1.93394 15.7588 2.60761 16 3.44788 16H12.5522C13.3924 16 14.066 15.7588 14.5731 15.2763C15.0803 14.7936 15.3336 14.1356 15.3336 13.3023C15.3336 12.9342 15.3215 12.5748 15.2969 12.224Z" fill="#008DD2"/>
</svg>
