<svg width="40" height="40" viewBox="0 0 40 40" fill="none" xmlns="http://www.w3.org/2000/svg">
<circle cx="20.0001" cy="19.9999" r="15.6364" fill="white"/>
<path fill-rule="evenodd" clip-rule="evenodd" d="M20 0C8.9543 0 0 8.9543 0 20C0 31.0457 8.9543 40 20 40C31.0457 40 40 31.0457 40 20C40 8.9543 31.0457 0 20 0ZM21.6286 26.3136C21.4314 26.5215 21.0464 26.5635 21.0464 26.5635H19.7713C19.7713 26.5635 16.9583 26.7294 14.4802 24.1976C11.7777 21.4353 9.39145 15.9547 9.39145 15.9547C9.39145 15.9547 9.25371 15.5952 9.40292 15.4221C9.57091 15.2265 10.029 15.2142 10.029 15.2142L13.0768 15.1947C13.0768 15.1947 13.3637 15.2408 13.5693 15.3893C13.7394 15.5122 13.8343 15.7406 13.8343 15.7406C13.8343 15.7406 14.3268 16.9635 14.9789 18.0697C16.2529 20.2298 16.8456 20.7019 17.2776 20.4704C17.9078 20.1335 17.7189 17.4173 17.7189 17.4173C17.7189 17.4173 17.7304 16.432 17.4017 15.9926C17.1471 15.6526 16.6672 15.5532 16.4554 15.5256C16.2832 15.503 16.5649 15.1118 16.9301 14.9366C17.4789 14.6734 18.4472 14.658 19.5919 14.6693C20.484 14.6785 20.7407 14.7328 21.0892 14.8158C21.898 15.0074 21.8727 15.6214 21.8182 16.9465C21.8019 17.3428 21.783 17.8027 21.783 18.3339C21.783 18.4533 21.7795 18.5806 21.7758 18.7115C21.7569 19.3904 21.7353 20.1678 22.191 20.4571C22.4247 20.6046 22.9955 20.4786 24.4239 18.0984C25.1011 16.9697 25.6082 15.6433 25.6082 15.6433C25.6082 15.6433 25.7198 15.4067 25.892 15.3053C26.0683 15.2019 26.3062 15.2337 26.3062 15.2337L29.5137 15.2142C29.5137 15.2142 30.4778 15.1005 30.6333 15.5286C30.7971 15.9762 30.2733 17.0229 28.9628 18.7375C27.7196 20.3643 27.1146 20.9633 27.1702 21.493C27.2108 21.8801 27.604 22.2302 28.3586 22.9173C29.934 24.353 30.3562 25.1083 30.4577 25.2898C30.4661 25.3048 30.4723 25.3159 30.4768 25.3232C31.1831 26.4734 29.6931 26.5635 29.6931 26.5635L26.8436 26.6024C26.8436 26.6024 26.2321 26.7212 25.4266 26.1784C25.0047 25.8943 24.5923 25.4302 24.1996 24.9883C23.5999 24.3133 23.0458 23.6897 22.5729 23.837C21.7789 24.0849 21.8029 25.7636 21.8029 25.7636C21.8029 25.7636 21.8091 26.1231 21.6286 26.3136Z" fill="#00A5E6"/>
</svg>
