<svg width="61" height="61" viewBox="0 0 61 61" fill="none" xmlns="http://www.w3.org/2000/svg">
<path fill-rule="evenodd" clip-rule="evenodd" d="M0 27.1017V33.8898C3.74251 33.8898 6.77673 30.8507 6.77673 27.1017H6.77688V0.0148926H0V27.1017Z" fill="#008DD2"/>
<path fill-rule="evenodd" clip-rule="evenodd" d="M60.9934 27.0936V27.0939V33.8819C57.2509 33.8819 54.2168 30.8428 54.2167 27.0939H54.2166V0.0065918H60.9934V27.0937V27.0936Z" fill="#333333"/>
<path fill-rule="evenodd" clip-rule="evenodd" d="M60.992 54.2066V60.9817C42.278 60.9817 27.1074 45.8154 27.1074 27.1068H33.8843C33.8843 42.0736 46.0208 54.2066 60.992 54.2066Z" fill="#333333"/>
<path fill-rule="evenodd" clip-rule="evenodd" d="M27.1075 27.1069H33.8844V0.0065918H27.1075V27.1069ZM0 54.2067V60.9818C18.714 60.9818 33.8844 45.8155 33.8844 27.1069H27.1075C27.1075 42.0737 14.9712 54.2067 0 54.2067Z" fill="#008DD2"/>
<path fill-rule="evenodd" clip-rule="evenodd" d="M47.4461 27.0999H40.6692V0H47.4461V27.0999ZM60.9998 40.6498V47.4248C49.7714 47.4248 40.6692 38.3252 40.6692 27.1H47.4459C47.4459 34.5833 53.5141 40.65 60.9998 40.65V40.6498Z" fill="#333333"/>
<path fill-rule="evenodd" clip-rule="evenodd" d="M13.5618 27.0999H20.3387V0H13.5618V27.0999ZM0.00805664 40.6498V47.4248C11.2365 47.4248 20.3387 38.3252 20.3387 27.1H13.562C13.562 34.5833 7.49365 40.65 0.00805664 40.65V40.6498Z" fill="#008DD2"/>
</svg>
